<?xml version="1.0" encoding="UTF-8"?>
<svg width="84px" height="25px" viewBox="0 0 84 25" version="1.1" xmlns="http://www.w3.org/2000/svg" xmlns:xlink="http://www.w3.org/1999/xlink">
    <!-- Generator: Sketch 52.5 (67469) - http://www.bohemiancoding.com/sketch -->
    <title>Group 58</title>
    <desc>Created with Sketch.</desc>
    <defs>
        <polygon id="path-1" points="0 24.9085317 83.8755952 24.9085317 83.8755952 0 0 0"></polygon>
    </defs>
    <g id="Page-1" stroke="none" stroke-width="1" fill="none" fill-rule="evenodd">
        <g id="INV0032" transform="translate(-262.000000, -776.000000)">
            <g id="Group-58" transform="translate(262.000000, 776.000000)">
                <path d="M8.81212302,7.56450397 C8.64009921,7.63414683 8.36906746,7.71509921 7.99863095,7.80775794 L8.22680556,8.66073413 C8.74922619,8.5353373 9.13950397,8.40775794 9.39744048,8.2789881 C9.65537698,8.14982143 9.82561508,8.01767857 9.90835317,7.8821627 C9.99089286,7.74664683 10.0323611,7.60934524 10.0323611,7.47025794 C10.0323611,7.33811508 9.99922619,7.21569444 9.93315476,7.10339286 C9.86688492,6.99089286 9.79248016,6.89009921 9.70994048,6.80061508 C9.62720238,6.71132937 9.55279762,6.62878968 9.48672619,6.55259921 C9.42045635,6.47680556 9.38751984,6.40894841 9.38751984,6.34922619 C9.38751984,6.27660714 9.44367063,6.19565476 9.55617063,6.10617063 C9.66847222,6.01688492 9.87025794,5.90954365 10.1613294,5.78375 L9.7744246,5.02005952 C9.26509921,5.23811508 8.91291667,5.45319444 8.71787698,5.66490079 C8.5228373,5.87640873 8.42521825,6.09128968 8.42521825,6.30974206 C8.42521825,6.44208333 8.45815476,6.55934524 8.5244246,6.66172619 C8.59049603,6.76450397 8.66490079,6.85696429 8.74763889,6.93970238 C8.83017857,7.02244048 8.90458333,7.09684524 8.97085317,7.16291667 C9.0369246,7.2289881 9.07005952,7.29168651 9.07005952,7.35140873 C9.07005952,7.42422619 8.98394841,7.49505952 8.81212302,7.56450397" id="Fill-1" fill="#AAB0C3"></path>
                <path d="M14.0105754,10.803631 C14.5792262,10.803631 15.0687103,10.7476786 15.478631,10.6349802 C15.88875,10.5226786 16.2028373,10.3208929 16.4210913,10.0300198 C16.6395437,9.73894841 16.7484722,9.32228175 16.7484722,8.77982143 C16.7484722,8.52188492 16.7220833,8.24569444 16.6691071,7.95144841 C16.616131,7.65740079 16.5500595,7.36613095 16.4706944,7.07863095 C16.3915278,6.79073413 16.3121627,6.53775794 16.2327976,6.31950397 L15.0720833,6.66672619 C15.1577976,6.90501984 15.2423214,7.15779762 15.3250595,7.42585317 C15.4075992,7.6935119 15.4752579,7.95144841 15.5282341,8.19946429 C15.5812103,8.44748016 15.6075992,8.66077381 15.6075992,8.83954365 C15.6075992,9.07109127 15.5647421,9.24291667 15.478631,9.35521825 C15.3927183,9.46791667 15.2407341,9.54232143 15.0224802,9.57843254 C14.8042262,9.61494048 14.4998611,9.63319444 14.1097817,9.63319444 C13.8847817,9.63319444 13.6980754,9.59331349 13.5492659,9.51394841 C13.4004563,9.43478175 13.2845833,9.29251984 13.2020437,9.08755952 C13.1193056,8.88240079 13.0681151,8.59152778 13.0482738,8.21434524 L12.8399405,3.56156746 L11.6693056,3.56156746 L11.8776389,8.2044246 C11.8907341,8.52188492 11.8609722,8.78478175 11.7883532,8.99311508 C11.7155357,9.20144841 11.5716865,9.36513889 11.3568056,9.48438492 C11.1417262,9.60323413 10.8341865,9.68597222 10.4341865,9.73240079 C10.0339881,9.77863095 9.51652778,9.79847222 8.88160714,9.79172619 C8.1605754,9.79172619 7.5919246,9.74212302 7.17525794,9.64291667 C6.75859127,9.54371032 6.46255952,9.39668651 6.28736111,9.20144841 C6.11196429,9.00640873 6.02446429,8.76652778 6.02446429,8.48220238 C6.02446429,8.31712302 6.04748016,8.12863095 6.09390873,7.91672619 C6.14013889,7.70521825 6.18636905,7.51335317 6.23279762,7.34132937 L5.18121032,7.08339286 C5.10839286,7.33498016 5.0355754,7.61414683 4.96295635,7.92188492 C4.89013889,8.22922619 4.85382937,8.52545635 4.85382937,8.80958333 C4.85382937,9.48438492 5.1496627,10.0117659 5.74172619,10.3919246 C6.33359127,10.7722817 7.29430556,10.9623611 8.62367063,10.9623611 C9.58914683,10.9689087 10.4010516,10.9177183 11.0591865,10.8085913 C11.717123,10.6996627 12.2181151,10.4464881 12.5621627,10.0496627 C12.7869643,10.5522421 13.2697024,10.803631 14.0105754,10.803631 Z" id="Fill-3" fill="#AAB0C3"></path>
                <path d="M16.5005357,5.42672619 C16.6658135,5.42672619 16.8080754,5.36561508 16.927123,5.24319444 C17.0461706,5.12077381 17.1056944,4.9769246 17.1056944,4.81144841 C17.1056944,4.64636905 17.0461706,4.50073413 16.927123,4.37513889 C16.8080754,4.24954365 16.6658135,4.18664683 16.5005357,4.18664683 C16.3285119,4.18664683 16.1830754,4.24954365 16.0640278,4.37513889 C15.9449802,4.50073413 15.8854563,4.64636905 15.8854563,4.81144841 C15.8854563,4.9769246 15.9449802,5.12077381 16.0640278,5.24319444 C16.1830754,5.36561508 16.3285119,5.42672619 16.5005357,5.42672619" id="Fill-5" fill="#AAB0C3"></path>
                <path d="M14.9232143,5.41684524 C15.0884921,5.41684524 15.230754,5.35712302 15.3498016,5.23827381 C15.4688492,5.11922619 15.528373,4.97696429 15.528373,4.8114881 C15.528373,4.6396627 15.4688492,4.49263889 15.3498016,4.37021825 C15.230754,4.24779762 15.0884921,4.18668651 14.9232143,4.18668651 C14.7511905,4.18668651 14.6039683,4.24779762 14.481746,4.37021825 C14.3593254,4.49263889 14.2982143,4.6396627 14.2982143,4.8114881 C14.2982143,4.97696429 14.3593254,5.11922619 14.481746,5.23827381 C14.6039683,5.35712302 14.7511905,5.41684524 14.9232143,5.41684524" id="Fill-7" fill="#AAB0C3"></path>
                <path d="M18.1771627,11.2649802 C17.8200198,11.5260913 17.3404563,11.7592262 16.7386706,11.9643849 L17.1553373,13.0358135 C17.7636706,12.8374008 18.3077183,12.5729167 18.7872817,12.2421627 C19.2666468,11.9114087 19.6438294,11.5145833 19.9182341,11.0516865 C20.1926389,10.5887897 20.3297421,10.05625 20.3297421,9.45446429 C20.3297421,8.78660714 20.0882738,8.0094246 19.6057341,7.12311508 L18.5243849,7.64890873 C18.7491865,8.05902778 18.9144643,8.41279762 19.0204167,8.71041667 C19.1261706,9.00803571 19.1791468,9.29573413 19.1791468,9.5735119 C19.1791468,9.86458333 19.101369,10.153869 18.9460119,10.4415675 C18.7904563,10.7292659 18.5343056,11.0036706 18.1771627,11.2649802" id="Fill-9" fill="#AAB0C3"></path>
                <path d="M26.857619,5.41684524 C27.0228968,5.41684524 27.1653571,5.35712302 27.2842063,5.23827381 C27.403254,5.11922619 27.4629762,4.97696429 27.4629762,4.8114881 C27.4629762,4.6396627 27.403254,4.49263889 27.2842063,4.37021825 C27.1653571,4.24779762 27.0228968,4.18668651 26.857619,4.18668651 C26.6855952,4.18668651 26.5385714,4.24779762 26.4161508,4.37021825 C26.2937302,4.49263889 26.2328175,4.6396627 26.2328175,4.8114881 C26.2328175,4.97696429 26.2937302,5.11922619 26.4161508,5.23827381 C26.5385714,5.35712302 26.6855952,5.41684524 26.857619,5.41684524" id="Fill-11" fill="#AAB0C3"></path>
                <path d="M24.0501984,9.65287698 C23.646627,9.6860119 23.3440476,9.68263889 23.1424603,9.64295635 C22.9404762,9.60327381 22.8051587,9.5421627 22.7357143,9.4594246 C22.6660714,9.37668651 22.6315476,9.28263889 22.6315476,9.17668651 C22.6315476,9.03779762 22.6577381,8.89394841 22.7109127,8.74513889 C22.7636905,8.59632937 22.8412698,8.47232143 22.9440476,8.37311508 C23.0464286,8.27390873 23.1672619,8.22430556 23.3061508,8.22430556 C23.5309524,8.22430556 23.7111111,8.35168651 23.8468254,8.60625 C23.9821429,8.8610119 24.0501984,9.19652778 24.0501984,9.61319444 L24.0501984,9.65287698 Z M28.6037698,7.9514881 C28.5507937,7.65724206 28.4847222,7.36617063 28.4053571,7.07847222 C28.3259921,6.79077381 28.2464286,6.53779762 28.1672619,6.31954365 L27.0063492,6.66676587 C27.0924603,6.90486111 27.1767857,7.1578373 27.2595238,7.42569444 C27.3420635,7.69355159 27.4099206,7.9514881 27.4628968,8.19950397 C27.5156746,8.44751984 27.5422619,8.66081349 27.5422619,8.83938492 C27.5422619,9.07093254 27.4992063,9.24295635 27.4132937,9.35525794 C27.327381,9.46775794 27.1751984,9.5421627 26.956746,9.57847222 C26.7386905,9.61498016 26.4345238,9.63303571 26.044246,9.63303571 L25.2206349,9.63303571 L25.2206349,9.58343254 C25.2206349,9.08085317 25.1414683,8.6344246 24.9825397,8.24414683 C24.8238095,7.85406746 24.6073413,7.54970238 24.3329365,7.33144841 C24.0583333,7.11319444 23.7392857,7.00406746 23.3755952,7.00406746 C23.1041667,7.00406746 22.8529762,7.0735119 22.621627,7.21240079 C22.3900794,7.35128968 22.1882937,7.53482143 22.0164683,7.76299603 C21.8444444,7.99117063 21.7103175,8.24573413 21.6146825,8.52688492 C21.5186508,8.80803571 21.4708333,9.09414683 21.4708333,9.38501984 C21.4708333,9.90089286 21.6444444,10.266369 21.9916667,10.48125 C22.3388889,10.6963294 22.7900794,10.8036706 23.3456349,10.8036706 L23.7724206,10.8036706 C23.5672619,11.1475198 23.2515873,11.3905754 22.8248016,11.5328373 C22.3984127,11.6749008 21.880754,11.7858135 21.2724206,11.8651786 L21.5103175,13.0358135 C22.4363095,12.962996 23.2001984,12.7397817 23.8021825,12.3661706 C24.4037698,11.9923611 24.8172619,11.4715278 25.0422619,10.8036706 L25.9450397,10.8036706 C26.5136905,10.8036706 27.0031746,10.7477183 27.4132937,10.6350198 C27.8234127,10.5227183 28.1375,10.3209325 28.355754,10.0298611 C28.5740079,9.7389881 28.6831349,9.32232143 28.6831349,8.77986111 C28.6831349,8.5219246 28.6565476,8.24573413 28.6037698,7.9514881 Z" id="Fill-13" fill="#AAB0C3"></path>
                <path d="M28.4350397,5.42672619 C28.6003175,5.42672619 28.7425794,5.36561508 28.861627,5.24319444 C28.9806746,5.12077381 29.0401984,4.9769246 29.0401984,4.81144841 C29.0401984,4.64636905 28.9806746,4.50073413 28.861627,4.37513889 C28.7425794,4.24954365 28.6003175,4.18664683 28.4350397,4.18664683 C28.2630159,4.18664683 28.1175794,4.24954365 27.9985317,4.37513889 C27.8794841,4.50073413 27.8199603,4.64636905 27.8199603,4.81144841 C27.8199603,4.9769246 27.8794841,5.12077381 27.9985317,5.24319444 C28.1175794,5.36561508 28.2630159,5.42672619 28.4350397,5.42672619" id="Fill-15" fill="#AAB0C3"></path>
                <path d="M34.8040079,4.33545635 C34.9758333,4.33545635 35.1246429,4.27275794 35.2504365,4.14696429 C35.3760317,4.02136905 35.4389286,3.87255952 35.4389286,3.70053571 C35.4389286,3.52176587 35.3760317,3.36819444 35.2504365,3.23922619 C35.1246429,3.11025794 34.9758333,3.04577381 34.8040079,3.04577381 C34.6254365,3.04577381 34.473254,3.11025794 34.3476587,3.23922619 C34.2218651,3.36819444 34.1591667,3.52176587 34.1591667,3.70053571 C34.1591667,3.87255952 34.2218651,4.02136905 34.3476587,4.14696429 C34.473254,4.27275794 34.6254365,4.33545635 34.8040079,4.33545635" id="Fill-17" fill="#AAB0C3"></path>
                <path d="M34.8634921,7.90688492 C34.5988095,7.90688492 34.4087302,7.86065476 34.2930556,7.76799603 C34.1771825,7.6753373 34.1194444,7.54656746 34.1194444,7.38109127 C34.1194444,7.13644841 34.1855159,6.92136905 34.3178571,6.73625 C34.45,6.55113095 34.6119048,6.45847222 34.8039683,6.45847222 C35.0287698,6.45847222 35.2071429,6.57930556 35.3396825,6.82037698 C35.4718254,7.06204365 35.5480159,7.3878373 35.5678571,7.79775794 C35.3297619,7.8705754 35.0948413,7.90688492 34.8634921,7.90688492 M33.9706349,10.7441865 C34.4204365,10.704504 34.7956349,10.6350595 35.096627,10.5358532 C35.3974206,10.4366468 35.6535714,10.2943849 35.8654762,10.1092659 C36.1299603,9.90430556 36.3382937,9.62652778 36.4904762,9.27573413 C36.6426587,8.92553571 36.7186508,8.50867063 36.7186508,8.02593254 C36.7186508,7.53664683 36.6525794,7.08505952 36.5202381,6.67156746 C36.3878968,6.25847222 36.1861111,5.92613095 35.9150794,5.67474206 C35.6438492,5.42335317 35.3,5.29775794 34.8833333,5.29775794 C34.5988095,5.29775794 34.3390873,5.36561508 34.1045635,5.50113095 C33.8696429,5.63684524 33.6680556,5.81859127 33.4994048,6.04676587 C33.330754,6.27474206 33.2,6.52632937 33.1075397,6.80073413 C33.014881,7.0753373 32.9686508,7.35132937 32.9686508,7.62910714 C32.9686508,8.11859127 33.1156746,8.47573413 33.410119,8.70053571 C33.7043651,8.92553571 34.1095238,9.0378373 34.6253968,9.0378373 C34.9164683,9.0378373 35.1875,8.99478175 35.4388889,8.90886905 C35.3924603,9.02771825 35.3311508,9.12871032 35.2553571,9.21144841 C35.1793651,9.29418651 35.0882937,9.36184524 34.9825397,9.41482143 C34.8700397,9.47414683 34.7180556,9.52077381 34.5261905,9.55371032 C34.3343254,9.58684524 34.0714286,9.60986111 33.7375,9.62295635 C33.4035714,9.63644841 32.9686508,9.63962302 32.4329365,9.6330754 L32.4329365,9.63367063 C32.4293651,9.63367063 32.4265873,9.6330754 32.4230159,9.6330754 C32.0990079,9.6330754 31.8577381,9.60509921 31.6990079,9.54855159 C31.5402778,9.49259921 31.4361111,9.38347222 31.3865079,9.22136905 C31.3369048,9.05946429 31.3053571,8.82295635 31.2922619,8.51204365 L31.0837302,3.56164683 L29.9132937,3.56164683 L30.121627,9.0378373 C30.1347222,9.44795635 30.2025794,9.78347222 30.325,10.0445833 C30.4472222,10.3060913 30.6636905,10.4979563 30.9746032,10.6201786 C31.2855159,10.7425992 31.735119,10.8037103 32.3238095,10.8037103 C32.327381,10.8037103 32.3301587,10.8031151 32.3337302,10.8029167 L32.3337302,10.8037103 C32.975,10.8037103 33.5206349,10.783869 33.9706349,10.7441865" id="Fill-19" fill="#AAB0C3"></path>
                <polygon id="Fill-21" fill="#AAB0C3" points="4.48900794 21.7636111 5.71916667 21.7636111 5.71916667 18.7973413 8.1697619 18.7973413 8.1697619 17.8447619 5.71916667 17.8447619 5.71916667 15.6521032 8.84436508 15.6521032 8.84436508 14.6699603 4.48900794 14.6699603"></polygon>
                <path d="M12.6240278,19.9480556 C12.6240278,20.6129365 12.0684722,20.9998413 11.3442659,20.9998413 C10.7488294,20.9998413 10.5109325,20.7121429 10.5109325,20.2754365 C10.5109325,19.6405159 11.09625,19.4321825 12.0089484,19.4321825 L12.6240278,19.4321825 L12.6240278,19.9480556 Z M11.7510119,16.4657143 C10.5902976,16.4657143 9.63771825,16.9716667 9.52859127,18.1821825 L10.689504,18.1821825 C10.7391071,17.6661111 11.0565675,17.3684921 11.6815675,17.3684921 C12.3859325,17.3684921 12.6240278,17.7258333 12.6240278,18.4103571 L12.6240278,18.6782143 L11.9791865,18.6782143 C10.5008135,18.6782143 9.32025794,19.1147222 9.32025794,20.3250397 C9.32025794,21.4065873 10.1039881,21.8627381 11.0565675,21.8627381 C11.8502183,21.8627381 12.3164881,21.5750397 12.643869,21.1286111 L12.643869,21.7635317 L13.8244246,21.7635317 L13.8244246,18.360754 C13.8244246,16.9421032 12.9018056,16.4657143 11.7510119,16.4657143 Z" id="Fill-23" fill="#AAB0C3"></path>
                <path d="M16.5922817,20.2059524 L16.5922817,17.4676587 L17.7232341,17.4676587 L17.7232341,16.5748016 L16.5922817,16.5748016 L16.5922817,15.4339286 L15.3916865,15.4339286 L15.3916865,16.5748016 L14.6972421,16.5748016 L14.6972421,17.4676587 L15.3916865,17.4676587 L15.3916865,20.3152778 C15.3916865,21.2974206 15.9274008,21.8529762 16.9593452,21.8529762 C17.3264087,21.8529762 17.5843452,21.7734127 17.7728373,21.7238095 L17.7728373,20.771627 C17.6041865,20.840873 17.4256151,20.8805556 17.1875198,20.8805556 C16.8006151,20.8805556 16.5922817,20.652381 16.5922817,20.2059524" id="Fill-25" fill="#AAB0C3"></path>
                <path d="M22.5941667,19.2138889 C22.5941667,20.2456349 22.0485317,20.9301587 21.1655952,20.9301587 C20.2628175,20.9301587 19.7271032,20.2656746 19.7271032,19.2039683 L19.7271032,19.1246032 C19.7271032,18.0529762 20.2826587,17.4081349 21.1655952,17.4081349 C22.0485317,17.4081349 22.5941667,18.0628968 22.5941667,19.1345238 L22.5941667,19.2138889 Z M21.1655952,16.4656746 C19.6475397,16.4656746 18.496746,17.5472222 18.496746,19.1444444 L18.496746,19.2238095 C18.496746,20.8013889 19.6378175,21.8628968 21.1556746,21.8628968 C22.6735317,21.8628968 23.8245238,20.8212302 23.8245238,19.1940476 L23.8245238,19.1146825 C23.8245238,17.527381 22.6834524,16.4656746 21.1655952,16.4656746 Z" id="Fill-27" fill="#AAB0C3"></path>
                <path d="M26.1059127,17.5471429 L26.1059127,16.5749206 L24.9055159,16.5749206 L24.9055159,21.7636111 L26.1059127,21.7636111 L26.1059127,19.065 C26.1059127,17.9638095 26.750754,17.6265079 27.792619,17.6165873 L27.792619,16.4953571 C26.9196032,16.5054762 26.4332937,16.8822619 26.1059127,17.5471429" id="Fill-29" fill="#AAB0C3"></path>
                <path d="M30.2822619,20.2059524 L30.2822619,17.4676587 L31.4132143,17.4676587 L31.4132143,16.5748016 L30.2822619,16.5748016 L30.2822619,15.4339286 L29.0818651,15.4339286 L29.0818651,16.5748016 L28.3872222,16.5748016 L28.3872222,17.4676587 L29.0818651,17.4676587 L29.0818651,20.3152778 C29.0818651,21.2974206 29.6175794,21.8529762 30.6495238,21.8529762 C31.0163889,21.8529762 31.2745238,21.7734127 31.4628175,21.7238095 L31.4628175,20.771627 C31.2943651,20.840873 31.1155952,20.8805556 30.8775,20.8805556 C30.4907937,20.8805556 30.2822619,20.652381 30.2822619,20.2059524" id="Fill-31" fill="#AAB0C3"></path>
                <polygon id="Fill-33" fill="#AAB0C3" points="34.8856746 18.9559921 36.8995635 16.5748413 35.5900397 16.5748413 33.7346825 18.8567857 33.7346825 14.1738492 32.5342857 14.1738492 32.5342857 21.7635317 33.7346825 21.7635317 33.7346825 19.2040079 35.6793254 21.7635317 37.0682143 21.7635317"></polygon>
                <path d="M40.3624603,21.8628175 C39.285873,21.8628175 38.535873,20.7941667 38.9019444,19.7816667 L43.5285317,6.98484127 C43.7509524,6.36956349 44.334881,5.95964286 44.9890476,5.95964286 C46.0656349,5.95964286 46.8156349,7.02829365 46.4495635,8.04079365 L41.8229762,20.8378175 C41.6005556,21.4530952 41.016627,21.8628175 40.3624603,21.8628175" id="Fill-35" fill="#AAB0C3"></path>
                <path d="M46.6242857,21.8628175 C45.5478968,21.8628175 44.7976984,20.7949603 45.1625794,19.7824603 L47.5169444,13.2499206 C47.7391667,12.6336508 48.3236905,12.2231349 48.9786508,12.2231349 C50.0550397,12.2231349 50.8052381,13.2909921 50.4401587,14.3034921 L48.0859921,20.8358333 C47.8639683,21.4521032 47.279246,21.8628175 46.6242857,21.8628175" id="Fill-37" fill="#AAB0C3"></path>
                <path d="M51.434384,20.9370368 L51.6695903,20.9370368 C51.803955,20.9370368 51.8712735,20.8823643 51.8712735,20.772797 C51.8712735,20.6632298 51.803955,20.608335 51.6695903,20.608335 L51.434384,20.608335 L51.434384,20.9370368 Z M51.434384,21.4853175 L51.1656548,21.4853175 L51.1656548,20.4436508 L51.7033859,20.4436508 C51.9721152,20.4436508 52.1737984,20.5807765 52.1737984,20.772797 C52.1737984,20.9097005 52.1064798,21.0192677 51.9385921,21.0741625 L52.2073214,21.4853175 L51.9050691,21.4853175 L51.6695903,21.1014987 L51.4681796,21.1014987 L51.434384,21.4853175 Z" id="Fill-39" fill="#AAB0C3"></path>
                <path d="M51.5081548,20.1501587 C51.0920833,20.1501587 50.749623,20.4928175 50.749623,20.9086905 C50.749623,21.3245635 51.0920833,21.6672222 51.5081548,21.6672222 C51.9240278,21.6672222 52.2664881,21.3245635 52.2664881,20.9086905 C52.2664881,20.4928175 51.9240278,20.1501587 51.5081548,20.1501587 M51.5081548,21.8628571 C50.9698611,21.8628571 50.5539881,21.422381 50.5539881,20.9086905 C50.5539881,20.3948016 50.9942659,19.9545238 51.5081548,19.9545238 C52.0218452,19.9545238 52.4623214,20.3948016 52.4623214,20.9086905 C52.4623214,21.422381 52.0218452,21.8628571 51.5081548,21.8628571" id="Fill-41" fill="#AAB0C3"></path>
                <mask id="mask-2" fill="white">
                    <use xlink:href="#path-1"></use>
                </mask>
                <g id="Clip-44"></g>
                <path d="M0,24.9085317 L83.8753968,24.9085317 L83.8753968,0 L0,0 L0,24.9085317 Z M0.396825397,24.5117063 L83.4785714,24.5117063 L83.4785714,0.396825397 L0.396825397,0.396825397 L0.396825397,24.5117063 Z" id="Fill-43" fill="#AAB0C3" mask="url(#mask-2)"></path>
                <polygon id="Fill-45" fill="#AAB0C3" mask="url(#mask-2)" points="57.3738095 24.821627 83.8755952 24.821627 83.8755952 0 57.3738095 0"></polygon>
                <path d="M67.3228571,7.13474206 C67.2540079,7.13474206 67.195873,7.1103373 67.148254,7.06132937 C67.1006349,7.01251984 67.0768254,6.95498016 67.0768254,6.88871032 C67.0768254,6.82263889 67.1006349,6.76450397 67.148254,6.71410714 C67.195873,6.66390873 67.2540079,6.63871032 67.3228571,6.63871032 C67.3889286,6.63871032 67.445873,6.66390873 67.4934921,6.71410714 C67.5411111,6.76450397 67.5649206,6.82263889 67.5649206,6.88871032 C67.5649206,6.95498016 67.5411111,7.01251984 67.4934921,7.06132937 C67.445873,7.1103373 67.3889286,7.13474206 67.3228571,7.13474206 Z M66.6919048,7.13077381 C66.6230556,7.13077381 66.5643254,7.10696429 66.5153175,7.05934524 C66.4663095,7.01172619 66.4419048,6.95498016 66.4419048,6.88871032 C66.4419048,6.82005952 66.4663095,6.76113095 66.5153175,6.71212302 C66.5643254,6.66331349 66.6230556,6.63871032 66.6919048,6.63871032 C66.7579762,6.63871032 66.8149206,6.66331349 66.8625397,6.71212302 C66.9101587,6.76113095 66.9339683,6.82005952 66.9339683,6.88871032 C66.9339683,6.95498016 66.9101587,7.01172619 66.8625397,7.05934524 C66.8149206,7.10696429 66.7579762,7.13077381 66.6919048,7.13077381 Z M66.6125397,8.89664683 C66.0807937,8.89664683 65.6964683,8.82065476 65.4597619,8.66847222 C65.2230556,8.5164881 65.1046032,8.30537698 65.1046032,8.03553571 C65.1046032,7.92184524 65.1192857,7.80339286 65.148254,7.68037698 C65.1774206,7.55736111 65.2063889,7.44565476 65.2355556,7.34525794 L65.6561905,7.44823413 C65.6377381,7.51708333 65.6190873,7.59367063 65.6006349,7.67839286 C65.5821825,7.76311508 65.5728571,7.8385119 65.5728571,7.90458333 C65.5728571,8.01847222 65.6079762,8.11430556 65.6780159,8.19228175 C65.7480556,8.27045635 65.8665079,8.32938492 66.0331746,8.36886905 C66.1998413,8.40855159 66.4274206,8.42859127 66.7157143,8.42859127 L66.7196825,8.43652778 L66.7196825,8.42859127 C66.8996429,8.42859127 67.0782143,8.41847222 67.2553968,8.39863095 C67.4325794,8.3789881 67.6046032,8.34248016 67.7712698,8.28950397 C67.9379365,8.23672619 68.0946825,8.15934524 68.2415079,8.05736111 C68.3883333,7.9555754 68.5212698,7.82125 68.6403175,7.65458333 L69.0133333,7.83712302 C68.9736508,7.94287698 68.9538095,8.02759921 68.9538095,8.09109127 C68.9538095,8.17045635 68.9895238,8.23593254 69.0609524,8.28771825 C69.132381,8.33910714 69.2726587,8.36490079 69.4815873,8.36490079 C69.5635317,8.36490079 69.6224603,8.3869246 69.6581746,8.43037698 C69.6938889,8.47402778 69.711746,8.52779762 69.711746,8.59109127 C69.711746,8.65994048 69.6879365,8.71767857 69.6403175,8.76371032 C69.5926984,8.80994048 69.526627,8.83335317 69.4419048,8.83335317 C69.2038095,8.83335317 69.0093651,8.79406746 68.8585714,8.71609127 C68.7077778,8.63811508 68.615119,8.52640873 68.5807937,8.38077381 C68.3718651,8.55815476 68.0960714,8.68831349 67.7534127,8.77164683 C67.410754,8.85498016 67.0317857,8.89664683 66.6165079,8.89664683 L66.6165079,8.89267857 L66.6125397,8.89664683 Z" id="Fill-46" fill="#FFFFFF" mask="url(#mask-2)"></path>
                <path d="M70.0966667,7.59105159 C70.1760317,7.65454365 70.2599603,7.72855159 70.3486508,7.81327381 C70.4373413,7.89799603 70.5212698,7.98668651 70.6006349,8.07914683 C70.7831746,7.9521627 70.8744444,7.81605159 70.8744444,7.67041667 C70.8744444,7.61763889 70.8512302,7.56882937 70.805,7.52359127 C70.7587698,7.47875 70.6760317,7.45613095 70.5569841,7.45613095 C70.4909127,7.45613095 70.4135317,7.46823413 70.3248413,7.49184524 C70.2361508,7.51565476 70.1601587,7.54878968 70.0966667,7.59105159 M69.4339683,8.83331349 L69.4736508,8.36486111 C69.6059921,8.36486111 69.7296032,8.3569246 69.8446825,8.34105159 C69.9597619,8.32517857 70.0663095,8.30275794 70.164127,8.27359127 C70.1085714,8.20751984 70.0464683,8.14125 69.977619,8.07517857 C69.9087698,8.00910714 69.8413095,7.95077381 69.7752381,7.90077381 C69.7593651,7.89005952 69.7434921,7.86287698 69.727619,7.81922619 C69.711746,7.77577381 69.6978571,7.73132937 69.6859524,7.68628968 C69.6740476,7.64144841 69.6680952,7.60831349 69.6680952,7.58708333 C69.6680952,7.53430556 69.6952778,7.47597222 69.7494444,7.41267857 C69.8036111,7.3489881 69.8764286,7.28906746 69.9676984,7.2319246 C70.0589683,7.17517857 70.1621429,7.12815476 70.2772222,7.09105159 C70.3923016,7.05414683 70.5093651,7.03549603 70.6284127,7.03549603 C70.8665079,7.03549603 71.0436905,7.08708333 71.1601587,7.19025794 C71.276627,7.29343254 71.3347619,7.42061508 71.3347619,7.57121032 C71.3347619,7.82775794 71.2210714,8.06605159 70.9934921,8.28549603 C71.1865476,8.33867063 71.3968651,8.36486111 71.6244444,8.36486111 C71.7063889,8.36486111 71.7659127,8.38688492 71.8030159,8.4303373 C71.840119,8.4739881 71.8585714,8.52775794 71.8585714,8.59105159 C71.8585714,8.66009921 71.8341667,8.71763889 71.7851587,8.76367063 C71.7361508,8.81009921 71.6694841,8.83331349 71.5847619,8.83331349 C71.1694841,8.83331349 70.8202778,8.75513889 70.5371429,8.5989881 C70.3889286,8.67041667 70.2222619,8.72755952 70.0371429,8.76962302 C69.8520238,8.81208333 69.6508333,8.83331349 69.4339683,8.83331349" id="Fill-47" fill="#FFFFFF" mask="url(#mask-2)"></path>
                <path d="M72.3942857,7.15470238 C72.3228571,7.15470238 72.2619444,7.12950397 72.211746,7.07910714 C72.1615476,7.02890873 72.1363492,6.96938492 72.1363492,6.90073413 C72.1363492,6.82910714 72.1615476,6.76779762 72.211746,6.71621032 C72.2619444,6.6644246 72.3228571,6.63863095 72.3942857,6.63863095 C72.4631349,6.63863095 72.5224603,6.6644246 72.5728571,6.71621032 C72.6230556,6.76779762 72.648254,6.82910714 72.648254,6.90073413 C72.648254,6.96938492 72.6230556,7.02890873 72.5728571,7.07910714 C72.5224603,7.12950397 72.4631349,7.15470238 72.3942857,7.15470238 M71.5847619,8.83327381 L71.6244444,8.36501984 C71.727619,8.36501984 71.8103571,8.35509921 71.8724603,8.33505952 C71.9345635,8.31541667 71.9827778,8.2769246 72.0173016,8.21998016 C72.051627,8.16323413 72.0813889,8.07990079 72.1065873,7.96998016 C72.1315873,7.86045635 72.1587698,7.71541667 72.1879365,7.53565476 L72.6284127,7.61105159 C72.615119,7.67712302 72.6006349,7.75390873 72.5847619,7.84121032 C72.5688889,7.92831349 72.5609524,8.0064881 72.5609524,8.0753373 C72.5609524,8.13347222 72.5740476,8.18426587 72.6006349,8.22791667 C72.6270238,8.27176587 72.6780159,8.30549603 72.7534127,8.32930556 C72.8288095,8.35311508 72.9405159,8.36501984 73.0887302,8.36501984 C73.1706746,8.36501984 73.2296032,8.38684524 73.2653175,8.43049603 C73.3010317,8.47394841 73.3188889,8.52771825 73.3188889,8.5910119 C73.3188889,8.66005952 73.2950794,8.71759921 73.2474603,8.76363095 C73.1998413,8.81005952 73.1337698,8.83327381 73.0490476,8.83327381 C72.8373413,8.83327381 72.6760317,8.81085317 72.5649206,8.76561508 C72.4538095,8.72077381 72.3756349,8.64537698 72.3307937,8.5394246 C72.2409127,8.66640873 72.1343651,8.7471627 72.0113492,8.7814881 C71.8883333,8.8160119 71.7460714,8.83327381 71.5847619,8.83327381" id="Fill-48" fill="#FFFFFF" mask="url(#mask-2)"></path>
                <path d="M75.6237099,6.02755158 C75.6237099,6.07091214 75.638504,6.1100177 75.6682949,6.14507087 C75.6980857,6.18032665 75.7357803,6.2099091 75.7817839,6.23442605 C75.8547411,6.17222187 75.8912197,6.10738365 75.8912197,6.03991136 C75.8912197,5.9965508 75.8804787,5.95947144 75.8587942,5.92847066 C75.8371097,5.89726726 75.8046843,5.88166556 75.761518,5.88166556 C75.7236208,5.88166556 75.6911953,5.89605154 75.6642417,5.92421565 C75.6370854,5.95258238 75.6237099,5.98702768 75.6237099,6.02755158 M75.1292223,6.68829365 L75.0886905,6.45710484 C75.1859667,6.45447079 75.2765553,6.44373196 75.3602534,6.42468573 C75.4439515,6.40584212 75.5183273,6.38294612 75.5831782,6.35579511 C75.5235964,6.31810789 75.475161,6.27150541 75.4372638,6.2161903 C75.3993665,6.16067257 75.3805193,6.09522648 75.3805193,6.0194468 C75.3805193,5.91692135 75.4163899,5.82918712 75.4879285,5.75604149 C75.5594671,5.68309849 75.6532981,5.64662698 75.7696243,5.64662698 C75.8885851,5.64662698 75.978363,5.68573254 76.0391606,5.76414627 C76.0999583,5.84256001 76.1303571,5.93171257 76.1303571,6.03180659 C76.1303571,6.15864637 76.0863802,6.2692766 75.9986289,6.36389989 C75.9108776,6.45852318 75.7919168,6.53410024 75.6419492,6.59083369 C75.4919817,6.64776976 75.3209376,6.68018887 75.1292223,6.68829365" id="Fill-49" fill="#FFFFFF" mask="url(#mask-2)"></path>
                <path d="M75.814881,7.65460317 C75.7142857,7.65460317 75.6138889,7.67781746 75.5132937,7.72404762 C75.4126984,7.77047619 75.3154762,7.83119048 75.221627,7.90678571 C75.1277778,7.98198413 75.0396825,8.06392857 74.9577381,8.15261905 C74.8757937,8.24130952 74.8029762,8.32801587 74.7394841,8.41253968 C74.8214286,8.41531746 74.9140873,8.41650794 75.0172619,8.41650794 C75.435119,8.41650794 75.734127,8.37940476 75.9140873,8.30539683 C76.0940476,8.23138889 76.1839286,8.12285714 76.1839286,7.98 C76.1839286,7.9034127 76.1547619,7.83 76.096627,7.7597619 C76.0382937,7.68972222 75.9444444,7.65460317 75.814881,7.65460317 M75.0529762,8.8847619 C74.7619048,8.8847619 74.5285714,8.87027778 74.3525794,8.84111111 C74.1765873,8.81214286 74.0416667,8.77027778 73.9478175,8.71611111 C73.8539683,8.66194444 73.7845238,8.59646825 73.7394841,8.51968254 C73.6414683,8.65996032 73.5337302,8.7472619 73.4160714,8.7815873 C73.2982143,8.81611111 73.1759921,8.8331746 73.0490079,8.8331746 L73.0886905,8.36492063 C73.2051587,8.36492063 73.2916667,8.34051587 73.3486111,8.29150794 C73.4053571,8.24269841 73.4509921,8.16134921 73.4855159,8.04746032 C73.5198413,7.93376984 73.5621032,7.77761905 73.6125,7.57920635 L74.0331349,7.68634921 C74.006746,7.78694444 73.9861111,7.87285714 73.971627,7.94428571 C73.9571429,8.01571429 73.9498016,8.06869048 73.9498016,8.10301587 C73.9498016,8.16928571 73.9676587,8.22345238 74.003373,8.26571429 C74.0390873,8.3081746 74.1150794,8.3425 74.2315476,8.36888889 C74.3267857,8.21809524 74.4359127,8.07265873 74.5589286,7.93238095 C74.6819444,7.79210317 74.8134921,7.6659127 74.9537698,7.5534127 C75.0940476,7.44111111 75.2406746,7.3518254 75.394246,7.28555556 C75.547619,7.21948413 75.702381,7.18634921 75.8585317,7.18634921 C76.0224206,7.18634921 76.1634921,7.21888889 76.2811508,7.28357143 C76.3988095,7.34845238 76.4886905,7.43833333 76.5509921,7.5534127 C76.6130952,7.66849206 76.644246,7.79884921 76.644246,7.94428571 C76.644246,8.12166667 76.5926587,8.2815873 76.4894841,8.42444444 C76.3863095,8.56730159 76.218254,8.67980159 75.9855159,8.76174603 C75.7527778,8.84369048 75.4418651,8.8847619 75.0529762,8.8847619" id="Fill-50" fill="#FFFFFF" mask="url(#mask-2)"></path>
                <path d="M65.7218056,14.5196032 C65.6529563,14.5196032 65.5948214,14.4959921 65.5472024,14.448373 C65.4995833,14.4005556 65.4757738,14.3436111 65.4757738,14.2775397 C65.4757738,14.2088889 65.4995833,14.1493651 65.5472024,14.0991667 C65.5948214,14.0487698 65.6529563,14.0235714 65.7218056,14.0235714 C65.7904563,14.0235714 65.8493849,14.0487698 65.8983929,14.0991667 C65.9472024,14.1493651 65.9718056,14.2088889 65.9718056,14.2775397 C65.9718056,14.3436111 65.9472024,14.4005556 65.8983929,14.448373 C65.8493849,14.4959921 65.7904563,14.5196032 65.7218056,14.5196032 Z M65.4360913,13.6584921 C64.9043452,13.6584921 64.5200198,13.5825 64.2833135,13.4305159 C64.0466071,13.2783333 63.9281548,13.0674206 63.9281548,12.797381 C63.9281548,12.6836905 63.9426389,12.5652381 63.9718056,12.4422222 C64.0007738,12.3192063 64.0299405,12.2076984 64.0591071,12.1071032 L64.4797421,12.2100794 C64.4610913,12.2789286 64.4426389,12.3557143 64.4241865,12.4404365 C64.4055357,12.5249603 64.3964087,12.6003571 64.3964087,12.6664286 C64.3964087,12.7803175 64.4315278,12.8763492 64.5015675,12.954127 C64.5716071,13.0323016 64.6900595,13.0912302 64.8567262,13.1307143 C65.0233929,13.1703968 65.2507738,13.1904365 65.5392659,13.1904365 L65.5432341,13.198373 L65.5432341,13.1904365 C65.722996,13.1904365 65.9015675,13.1803175 66.0789484,13.1604762 C66.256131,13.1408333 66.4281548,13.1043254 66.5948214,13.0515476 C66.7614881,12.9985714 66.9182341,12.9211905 67.0650595,12.8194048 C67.2118849,12.7174206 67.3448214,12.5830952 67.463869,12.4164286 L67.8368849,12.5989683 C67.7972024,12.7049206 67.7773611,12.7894444 67.7773611,12.8531349 C67.7773611,12.9323016 67.8130754,12.9977778 67.884504,13.0495635 C67.9559325,13.1011508 68.0960119,13.126746 68.3051389,13.126746 C68.3870833,13.126746 68.4460119,13.1487698 68.4817262,13.1924206 C68.5174405,13.235873 68.5352976,13.2896429 68.5352976,13.3529365 C68.5352976,13.4219841 68.5114881,13.4795238 68.463869,13.5255556 C68.41625,13.5719841 68.3501786,13.5951984 68.2654563,13.5951984 C68.0273611,13.5951984 67.8329167,13.5561111 67.682123,13.4779365 C67.5313294,13.3999603 67.4386706,13.288254 67.4043452,13.1428175 C67.1952183,13.32 66.919623,13.4501587 66.5769643,13.5334921 C66.2343056,13.6168254 65.8553373,13.6584921 65.4400595,13.6584921 L65.4400595,13.6547222 L65.4360913,13.6584921 Z" id="Fill-51" fill="#FFFFFF" mask="url(#mask-2)"></path>
                <path d="M68.2654167,13.5951786 L68.3050992,13.1269246 C68.5854563,13.1269246 68.857877,13.0918056 69.1225595,13.0215675 C69.3870437,12.9517262 69.6239484,12.8451786 69.832877,12.7023214 C69.7191865,12.6229563 69.5882341,12.5606548 69.4400198,12.5158135 C69.2918056,12.4707738 69.1291071,12.4483532 68.9519246,12.4483532 C68.8856548,12.4483532 68.8215675,12.4515278 68.7594643,12.4582738 C68.6973611,12.4648214 68.630496,12.4759325 68.5590675,12.4918056 L68.4876389,12.0394246 C68.5616468,12.0183929 68.6384325,12.0025198 68.7177976,11.992004 C68.7971627,11.9812897 68.8711706,11.976131 68.9400198,11.976131 C69.1172024,11.976131 69.2745437,12.0005357 69.4122421,12.0495437 C69.5497421,12.0983532 69.6753373,12.1539087 69.7892262,12.2162103 C69.9029167,12.2783135 70.0094643,12.3340675 70.1086706,12.382877 C70.207877,12.4318849 70.3076786,12.4562897 70.4082738,12.4562897 L70.5312897,12.4562897 L70.5789087,12.8927976 C70.4650198,12.8979563 70.3600595,12.917996 70.2634325,12.9523214 C70.1668056,12.9866468 70.0709722,13.0308929 69.9757341,13.0852579 C69.880496,13.1394246 69.7799008,13.1955754 69.6741468,13.2537103 C69.5681944,13.3120437 69.4493452,13.367004 69.317004,13.4183929 C69.1846627,13.4701786 69.0332738,13.5124405 68.8626389,13.5455754 C68.692004,13.5785119 68.4927976,13.5951786 68.2654167,13.5951786" id="Fill-52" fill="#FFFFFF" mask="url(#mask-2)"></path>
                <path d="M71.8446825,13.5077778 C71.8446825,13.415119 71.8571825,13.3034127 71.882381,13.1726587 C71.907381,13.0415079 71.958373,12.890119 72.0351587,12.7182937 L72.4478571,12.8649206 C72.4028175,12.9839683 72.3690873,13.0885317 72.3466667,13.1784127 C72.324246,13.2684921 72.3129365,13.3544048 72.3129365,13.4363492 C72.3129365,13.560754 72.3446825,13.6686905 72.4081746,13.7599603 C72.4716667,13.8510317 72.5575794,13.9204762 72.6661111,13.9680952 C72.7746429,14.0159127 72.8962698,14.0395238 73.0311905,14.0395238 C73.2692857,14.0395238 73.4538095,13.9998413 73.5847619,13.9204762 C73.7157143,13.8411111 73.805,13.7240476 73.852619,13.5694841 C73.9002381,13.4145238 73.9200794,13.2260317 73.9121429,13.0038095 L73.8288095,10.698254 L74.3010317,10.698254 L74.3645238,12.6270238 C74.369881,12.8278175 74.4101587,12.9615476 74.4855556,13.027619 C74.5609524,13.0936905 74.6726587,13.1268254 74.820873,13.1268254 C74.9053968,13.1268254 74.9657143,13.1486508 75.0014286,13.1923016 C75.0371429,13.2359524 75.055,13.2895238 75.055,13.3530159 C75.055,13.4218651 75.0305952,13.4794048 74.9815873,13.5256349 C74.9325794,13.5718651 74.8659127,13.5950794 74.7811905,13.5950794 C74.699246,13.5950794 74.6218651,13.5825794 74.5490476,13.557381 C74.4762302,13.5321825 74.4121429,13.4946825 74.3565873,13.4442857 C74.3063889,13.7881349 74.1720635,14.0488492 73.9538095,14.2260317 C73.7355556,14.4034127 73.4226587,14.4919048 73.0153175,14.4919048 C72.8063889,14.4919048 72.6125397,14.4548016 72.4339683,14.3807937 C72.2553968,14.3065873 72.1125397,14.1970635 72.0053968,14.0514286 C71.898254,13.9059921 71.8446825,13.7246429 71.8446825,13.5077778" id="Fill-53" fill="#FFFFFF" mask="url(#mask-2)"></path>
                <path d="M74.7811508,13.5951786 L74.8208333,13.1269246 L75.2811508,13.1269246 C75.4214286,13.1269246 75.5271825,13.1189881 75.5986111,13.1031151 C75.6700397,13.0870437 75.7176587,13.0654167 75.7414683,13.0374405 C75.7652778,13.0098611 75.7771825,12.9775198 75.7771825,12.9402183 C75.7771825,12.8769246 75.7468254,12.8029167 75.6859127,12.7181944 C75.625,12.6334722 75.5501984,12.5461706 75.4617063,12.4562897 C75.3730159,12.3664087 75.2837302,12.2797024 75.1938492,12.1961706 C75.1037698,12.1128373 75.0285714,12.0410119 74.9676587,11.9799008 C74.906746,11.9191865 74.8763889,11.8755357 74.8763889,11.8489484 C74.8763889,11.7590675 74.8843254,11.689623 74.9001984,11.6406151 C74.9160714,11.5918056 74.9384921,11.5527183 74.9676587,11.52375 C75.0337302,11.4576786 75.1357143,11.3836706 75.2732143,11.3013294 C75.4107143,11.2193849 75.5734127,11.132877 75.7613095,11.0416071 C75.9492063,10.9503373 76.1501984,10.854504 76.3644841,10.7539087 L76.5549603,11.1666071 C76.2982143,11.2830754 76.0728175,11.3888294 75.878373,11.483869 C75.6839286,11.5793056 75.5166667,11.6691865 75.3763889,11.7539087 C75.5694444,11.9231548 75.7388889,12.0870437 75.8843254,12.2457738 C76.0297619,12.4047024 76.1634921,12.5898214 76.285119,12.8015278 C76.3406746,12.8993452 76.4021825,12.9709722 76.4696429,13.0158135 C76.5371032,13.0608532 76.6031746,13.0904167 76.6680556,13.1049008 C76.7327381,13.1197817 76.7876984,13.1269246 76.8327381,13.1269246 C76.9146825,13.1269246 76.975,13.14875 77.0132937,13.1924008 C77.0515873,13.2358532 77.0708333,13.289623 77.0708333,13.3529167 C77.0708333,13.4219643 77.0464286,13.479504 76.9974206,13.5255357 C76.9484127,13.5719643 76.8803571,13.5951786 76.7930556,13.5951786 C76.7269841,13.5951786 76.6535714,13.5858532 76.5728175,13.5672024 C76.4920635,13.5489484 76.4126984,13.5175992 76.3347222,13.4741468 C76.256746,13.430496 76.1871032,13.3687897 76.1263889,13.289623 C76.0444444,13.3981548 75.935119,13.4759325 75.7990079,13.52375 C75.6626984,13.571369 75.480754,13.5951786 75.253373,13.5951786 L74.7811508,13.5951786 Z" id="Fill-54" fill="#FFFFFF" mask="url(#mask-2)"></path>
                <path d="M77.2864816,14.4403571 C77.2138996,14.4403571 77.1526128,14.4165476 77.102412,14.3689286 C77.0522112,14.3211111 77.0271108,14.2643651 77.0271108,14.1982937 C77.0271108,14.1294444 77.0522112,14.0699206 77.102412,14.0197222 C77.1526128,13.9693254 77.2138996,13.9443254 77.2864816,13.9443254 C77.3590636,13.9443254 77.420978,13.9693254 77.472643,14.0197222 C77.5243079,14.0699206 77.5500359,14.1294444 77.5500359,14.1982937 C77.5500359,14.2643651 77.5243079,14.3211111 77.472643,14.3689286 C77.420978,14.4165476 77.3590636,14.4403571 77.2864816,14.4403571 M76.7970238,13.595119 L76.8388578,13.1268651 C77.028575,13.1268651 77.1616071,13.1070238 77.2383725,13.0673413 C77.3151379,13.0276587 77.353416,12.9415476 77.353416,12.8094048 C77.353416,12.7379762 77.34233,12.6526587 77.3199488,12.5534524 C77.2975677,12.454246 77.269748,12.3510714 77.2362808,12.2439286 C77.2028136,12.1367857 77.1678822,12.0355952 77.1316958,11.9401587 L77.6169703,11.8014683 C77.6504375,11.8887698 77.6845322,11.9897619 77.7194636,12.1048413 C77.754395,12.220119 77.7828421,12.3363889 77.8052233,12.454246 C77.8276045,12.5719048 77.8386905,12.6824206 77.8386905,12.7855952 C77.8386905,13.0024603 77.7941373,13.1693254 77.7048217,13.2855952 C77.6155061,13.4020635 77.4929324,13.482619 77.3366824,13.5274603 C77.1804324,13.5726984 77.0005462,13.595119 76.7970238,13.595119" id="Fill-55" fill="#FFFFFF" mask="url(#mask-2)"></path>
                <path d="M70.0391071,19.4125 C69.9702579,19.4125 69.912123,19.3886905 69.864504,19.3410714 C69.8168849,19.2934524 69.7930754,19.235119 69.7930754,19.1664683 C69.7930754,19.097619 69.8168849,19.0386905 69.864504,18.989881 C69.912123,18.940873 69.9702579,18.9164683 70.0391071,18.9164683 C70.1051786,18.9164683 70.162123,18.940873 70.2097421,18.989881 C70.2573611,19.0386905 70.2811706,19.097619 70.2811706,19.1664683 C70.2811706,19.235119 70.2573611,19.2934524 70.2097421,19.3410714 C70.162123,19.3886905 70.1051786,19.4125 70.0391071,19.4125 M69.4081548,19.4125 C69.3393056,19.4125 69.2805754,19.3886905 69.2315675,19.3410714 C69.1825595,19.2934524 69.1581548,19.235119 69.1581548,19.1664683 C69.1581548,19.097619 69.1825595,19.0386905 69.2315675,18.989881 C69.2805754,18.940873 69.3393056,18.9164683 69.4081548,18.9164683 C69.4742262,18.9164683 69.5311706,18.940873 69.5787897,18.989881 C69.6264087,19.0386905 69.6502183,19.097619 69.6502183,19.1664683 C69.6502183,19.235119 69.6264087,19.2934524 69.5787897,19.3410714 C69.5311706,19.3886905 69.4742262,19.4125 69.4081548,19.4125 M68.3922817,17.7418651 C68.3922817,17.6519841 68.4047817,17.5414683 68.4299802,17.4105159 C68.4551786,17.2795635 68.5059722,17.1267857 68.5827579,16.9521825 L68.9954563,17.0990079 C68.9504167,17.2206349 68.9166865,17.3265873 68.8942659,17.4164683 C68.8718452,17.5065476 68.8605357,17.5924603 68.8605357,17.6744048 C68.8605357,17.8676587 68.9418849,18.0136905 69.1045833,18.1128968 C69.2672817,18.2121032 69.4835516,18.2617063 69.7533929,18.2617063 C70.0232341,18.2617063 70.2381151,18.2359127 70.3982341,18.1845238 C70.5583532,18.1327381 70.6383135,18.0686508 70.6383135,17.9918651 C70.6383135,17.9626984 70.6277976,17.9365079 70.6065675,17.9125 C70.5853373,17.8886905 70.537123,17.8549603 70.4617262,17.8113095 C70.3863294,17.7676587 70.2692659,17.7021825 70.1105357,17.614881 L70.3049802,17.1902778 C70.5484325,17.3464286 70.7494246,17.4765873 70.9081548,17.5813492 C71.0668849,17.6857143 71.2018056,17.7630952 71.3129167,17.8132937 C71.4240278,17.8634921 71.5297817,17.8886905 71.630377,17.8886905 C71.7150992,17.8886905 71.7752183,17.9105159 71.8109325,17.9541667 C71.8466468,17.9978175 71.864504,18.0513889 71.864504,18.114881 C71.864504,18.1837302 71.8400992,18.2412698 71.7910913,18.2875 C71.7420833,18.3337302 71.6754167,18.3569444 71.5906944,18.3569444 C71.3789881,18.3569444 71.2071627,18.2988095 71.0748214,18.1823413 C71.0377183,18.2724206 70.9631151,18.3589286 70.8506151,18.4422619 C70.7381151,18.5255952 70.586131,18.5944444 70.3942659,18.6486111 C70.2024008,18.7027778 69.9676786,18.7301587 69.6899008,18.7301587 C69.4333532,18.7301587 69.2071627,18.694246 69.0113294,18.6230159 C68.815496,18.5513889 68.6635119,18.4428571 68.5549802,18.2974206 C68.4464484,18.1517857 68.3922817,17.9668651 68.3922817,17.7418651" id="Fill-56" fill="#FFFFFF" mask="url(#mask-2)"></path>
                <path d="M72.5788492,15.7695833 C72.5074206,15.7695833 72.4465079,15.7445833 72.3963095,15.6941865 C72.3461111,15.6439881 72.3209127,15.5844643 72.3209127,15.5158135 C72.3209127,15.4441865 72.3461111,15.382877 72.3963095,15.3312897 C72.4465079,15.279504 72.5074206,15.2537103 72.5788492,15.2537103 C72.6476984,15.2537103 72.7070238,15.279504 72.7574206,15.3312897 C72.807619,15.382877 72.8328175,15.4441865 72.8328175,15.5158135 C72.8328175,15.5844643 72.807619,15.6439881 72.7574206,15.6941865 C72.7070238,15.7445833 72.6476984,15.7695833 72.5788492,15.7695833 M72.3050397,16.9880357 C72.3050397,17.0541071 72.328254,17.105496 72.3744841,17.1427976 C72.4207143,17.1797024 72.4967063,17.1981548 72.6026587,17.1981548 C72.695119,17.1981548 72.7891667,17.1836706 72.8844048,17.154504 C72.8764683,16.9906151 72.8461111,16.8602579 72.7931349,16.7638294 C72.7401587,16.667004 72.6687302,16.6187897 72.5788492,16.6187897 C72.5020635,16.6187897 72.437381,16.6560913 72.3844048,16.7300992 C72.3314286,16.8041071 72.3050397,16.8900198 72.3050397,16.9880357 M71.590754,18.3568849 L71.6304365,17.8888294 C71.8447222,17.8914087 72.0187302,17.8902183 72.1522619,17.8846627 C72.2857937,17.879504 72.3909524,17.8701786 72.4677381,17.8570833 C72.5445238,17.8437897 72.6052381,17.8251389 72.6502778,17.8013294 C72.6925397,17.7802976 72.7288492,17.7531151 72.7594048,17.7199802 C72.7897619,17.6870437 72.8143651,17.6465675 72.8328175,17.5991468 C72.7322222,17.6334722 72.6238889,17.6505357 72.5074206,17.6505357 C72.3010714,17.6505357 72.1389683,17.6056944 72.0213095,17.5158135 C71.9036508,17.4259325 71.8447222,17.282877 71.8447222,17.0872421 C71.8447222,16.9759325 71.8631746,16.8654167 71.9002778,16.7558929 C71.937381,16.6459722 71.9895635,16.545377 72.0570238,16.4541071 C72.1244841,16.3628373 72.2052381,16.2902183 72.2990873,16.2360516 C72.3929365,16.1816865 72.4967063,16.154504 72.6105952,16.154504 C72.7772619,16.154504 72.9147619,16.2049008 73.0232937,16.3052976 C73.1318254,16.4058929 73.212381,16.5388294 73.2653571,16.7041071 C73.3183333,16.8695833 73.3447222,17.0501389 73.3447222,17.2457738 C73.3447222,17.4390278 73.3143651,17.6056944 73.2534524,17.7457738 C73.1925397,17.8860516 73.1092063,17.9973611 73.0034524,18.0793056 C72.9187302,18.1533135 72.8163492,18.2102579 72.6959127,18.2497421 C72.5754762,18.2894246 72.4254762,18.3174008 72.2455159,18.3332738 C72.0655556,18.3489484 71.8473016,18.3568849 71.590754,18.3568849" id="Fill-57" fill="#FFFFFF" mask="url(#mask-2)"></path>
            </g>
        </g>
    </g>
</svg>