<?xml version="1.0" encoding="utf-8"?>
<!-- Generator: Adobe Illustrator 23.0.0, SVG Export Plug-In . SVG Version: 6.00 Build 0)  -->
<svg version="1.1" id="Layer_1" xmlns="http://www.w3.org/2000/svg" xmlns:xlink="http://www.w3.org/1999/xlink" x="0px" y="0px"
	 viewBox="0 0 229.59 60.52" style="enable-background:new 0 0 229.59 60.52;" xml:space="preserve">
<style type="text/css">
	.st0{fill:#898EA7;}
	.st1{fill:#36A9E1;}
	.st2{fill:#1D71B8;}
</style>
<g>
	<g>
		<path class="st0" d="M52.61,14.61h-0.55c-0.46,0-0.87-0.05-1.21-0.18c-0.34-0.12-0.62-0.28-0.85-0.47
			c-0.22-0.18-0.39-0.41-0.51-0.64c-0.12-0.24-0.17-0.47-0.17-0.71c0-0.5,0.17-0.85,0.51-1.06c0.34-0.21,0.79-0.31,1.31-0.31
			c0.24,0,0.46,0.01,0.66,0.04s0.35,0.05,0.45,0.08l0.25-1.61c-0.29-0.05-0.54-0.09-0.79-0.09c-0.25-0.01-0.47-0.01-0.7-0.01
			c-0.56,0-1.06,0.08-1.47,0.22c-0.41,0.14-0.75,0.33-1.02,0.58c-0.28,0.24-0.47,0.51-0.6,0.83c-0.13,0.31-0.2,0.64-0.2,0.96
			s0.04,0.6,0.12,0.88c0.08,0.26,0.18,0.5,0.31,0.71c0.12,0.21,0.26,0.38,0.39,0.51c0.14,0.13,0.26,0.25,0.37,0.31h-2.09v1.57h5.78
			V14.61z"/>
		<path class="st0" d="M36.94,22.02c0.21,0.43,0.51,0.81,0.89,1.17s0.89,0.66,1.52,0.92c0.63,0.25,1.4,0.45,2.32,0.59
			c0.92,0.13,1.99,0.21,3.25,0.21h17.33V2.03h-2.83v20H46.7c-1.68,0-3.02-0.07-4.01-0.2s-1.76-0.34-2.27-0.63
			c-0.52-0.29-0.87-0.66-1.01-1.1c-0.16-0.45-0.24-1-0.24-1.63c0-0.37,0.03-0.75,0.08-1.11c0.05-0.37,0.1-0.75,0.16-1.11L36.72,16
			c-0.04,0.24-0.08,0.5-0.12,0.77c-0.04,0.29-0.08,0.56-0.1,0.84c-0.03,0.29-0.05,0.56-0.08,0.81c-0.01,0.26-0.03,0.5-0.03,0.71
			c0,0.52,0.04,1.05,0.1,1.52C36.59,21.13,36.72,21.59,36.94,22.02z"/>
		<path class="st0" d="M71.91,26.39c0.3-1.09,0.46-2.44,0.46-4.05v-9.75h-2.83v10.55c0,0.8-0.05,1.52-0.16,2.16
			c-0.1,0.64-0.33,1.19-0.68,1.67s-0.85,0.87-1.52,1.15c-0.67,0.3-1.56,0.52-2.69,0.67l0.29,2.74c1.3-0.18,2.44-0.46,3.38-0.84
			c0.96-0.38,1.74-0.93,2.36-1.63C71.15,28.37,71.61,27.47,71.91,26.39z"/>
		<path class="st0" d="M78.76,22.9c0.54,0.59,1.26,1.08,2.15,1.44c0.88,0.37,1.98,0.56,3.28,0.56h2.58
			c-0.33,1.15-1.15,2.07-2.45,2.78c-1.3,0.7-3.02,1.11-5.15,1.27l0.3,2.75c1.27-0.13,2.47-0.34,3.58-0.63
			c1.13-0.29,2.11-0.71,3-1.22c0.88-0.52,1.63-1.19,2.24-1.99c0.62-0.8,1.06-1.78,1.34-2.95h3.59l0,0h4.98h5h8.01v-12.3h-2.83v9.43
			h-5.21h-5h-4.97H93.2h-3.4v-2.73c0-0.98-0.09-1.85-0.26-2.6c-0.17-0.75-0.41-1.39-0.71-1.93c-0.3-0.54-0.64-0.98-1.02-1.34
			c-0.39-0.35-0.8-0.63-1.23-0.83c-0.43-0.2-0.88-0.35-1.34-0.43c-0.45-0.08-0.88-0.12-1.3-0.12c-1.02,0-1.95,0.17-2.79,0.51
			c-0.83,0.34-1.53,0.81-2.12,1.4c-0.59,0.6-1.05,1.3-1.35,2.11c-0.31,0.8-0.47,1.68-0.47,2.6c0,0.73,0.12,1.47,0.37,2.2
			C77.82,21.66,78.21,22.31,78.76,22.9z M80.26,16.97c0.18-0.46,0.42-0.85,0.73-1.19c0.31-0.33,0.67-0.59,1.09-0.77
			s0.87-0.26,1.35-0.26c0.43,0,0.87,0.08,1.29,0.22c0.43,0.14,0.8,0.41,1.14,0.81c0.33,0.39,0.6,0.96,0.8,1.68
			c0.2,0.72,0.3,1.64,0.3,2.78v1.8h-2.81c-0.75,0-1.4-0.09-1.91-0.29c-0.52-0.18-0.96-0.45-1.29-0.77c-0.34-0.31-0.58-0.7-0.73-1.13
			c-0.16-0.43-0.22-0.88-0.22-1.36C79.98,17.94,80.07,17.45,80.26,16.97z"/>
		<path class="st0" d="M107.22,8.57c0.24,0,0.45-0.04,0.66-0.13c0.2-0.09,0.38-0.21,0.54-0.35c0.16-0.16,0.28-0.33,0.37-0.54
			c0.09-0.2,0.13-0.43,0.13-0.66c0-0.24-0.04-0.46-0.13-0.66c-0.09-0.21-0.21-0.38-0.37-0.54c-0.16-0.16-0.33-0.28-0.54-0.37
			c-0.2-0.09-0.42-0.13-0.66-0.13c-0.24,0-0.45,0.04-0.66,0.13c-0.2,0.09-0.38,0.21-0.52,0.37c-0.14,0.16-0.26,0.33-0.35,0.54
			s-0.13,0.43-0.13,0.66c0,0.47,0.16,0.88,0.47,1.21C106.36,8.41,106.75,8.57,107.22,8.57z"/>
		<path class="st0" d="M113.27,6.23c-0.09-0.21-0.21-0.38-0.37-0.54c-0.16-0.16-0.33-0.28-0.54-0.37c-0.2-0.09-0.42-0.13-0.66-0.13
			c-0.24,0-0.45,0.04-0.66,0.13c-0.2,0.09-0.38,0.21-0.52,0.37c-0.14,0.16-0.26,0.33-0.35,0.54c-0.09,0.21-0.13,0.43-0.13,0.66
			c0,0.47,0.16,0.88,0.49,1.21c0.31,0.33,0.72,0.49,1.19,0.49c0.24,0,0.45-0.04,0.66-0.13c0.2-0.09,0.38-0.21,0.54-0.35
			c0.16-0.16,0.28-0.33,0.37-0.54c0.09-0.2,0.13-0.43,0.13-0.66C113.4,6.65,113.36,6.43,113.27,6.23z"/>
		<path class="st0" d="M137.22,8.57c0.24,0,0.45-0.04,0.66-0.13c0.2-0.09,0.38-0.21,0.54-0.35c0.16-0.16,0.28-0.33,0.37-0.54
			c0.09-0.2,0.13-0.43,0.13-0.66c0-0.24-0.04-0.46-0.13-0.66c-0.09-0.21-0.21-0.38-0.37-0.54c-0.16-0.16-0.33-0.28-0.54-0.37
			c-0.2-0.09-0.42-0.13-0.66-0.13s-0.45,0.04-0.66,0.13c-0.2,0.09-0.38,0.21-0.52,0.37c-0.14,0.16-0.26,0.33-0.35,0.54
			c-0.09,0.21-0.13,0.43-0.13,0.66c0,0.47,0.16,0.88,0.47,1.21C136.35,8.41,136.75,8.57,137.22,8.57z"/>
		<path class="st0" d="M143.07,18.39c0-1-0.13-1.9-0.39-2.69c-0.26-0.8-0.64-1.47-1.14-2.01s-1.1-0.96-1.82-1.26
			c-0.72-0.29-1.52-0.43-2.45-0.43c-0.93,0-1.8,0.17-2.58,0.5c-0.79,0.33-1.47,0.8-2.05,1.38c-0.58,0.59-1.02,1.29-1.35,2.07
			c-0.33,0.79-0.5,1.64-0.5,2.56c0,0.37,0.03,0.73,0.08,1.08c0.05,0.35,0.13,0.67,0.22,0.98c0.09,0.3,0.2,0.58,0.33,0.8
			c0.12,0.24,0.25,0.43,0.38,0.58v0.09h-5.05l0,0h-4.98h-1.06c-0.33,0-0.59-0.04-0.8-0.13c-0.2-0.09-0.37-0.25-0.49-0.46
			c-0.12-0.22-0.2-0.51-0.25-0.89c-0.04-0.38-0.08-0.85-0.08-1.43V2.05h-2.83v18.24c0,0.66,0.08,1.27,0.24,1.84
			c0.16,0.56,0.39,1.05,0.73,1.47s0.75,0.73,1.26,0.97c0.51,0.24,1.1,0.35,1.8,0.35h1.48h4.98l0,0h16.32L143.07,18.39L143.07,18.39z
			 M140.24,22.04h-2.61c-0.66,0-1.23-0.09-1.76-0.26c-0.51-0.17-0.94-0.42-1.31-0.73c-0.35-0.31-0.63-0.7-0.83-1.14
			c-0.2-0.45-0.29-0.94-0.29-1.48c0-0.54,0.09-1.04,0.26-1.48c0.18-0.45,0.42-0.83,0.73-1.15c0.31-0.31,0.67-0.56,1.09-0.75
			c0.42-0.18,0.87-0.26,1.35-0.26c0.43,0,0.85,0.08,1.26,0.21c0.41,0.13,0.76,0.37,1.08,0.71c0.31,0.33,0.56,0.77,0.73,1.31
			c0.17,0.54,0.28,1.23,0.28,2.05L140.24,22.04L140.24,22.04z"/>
		<polygon class="st0" points="36.42,58.08 39.67,58.08 39.67,47.76 48.07,47.76 48.07,44.9 39.67,44.9 39.67,38.26 48.47,38.26 
			48.47,35.42 36.42,35.42 		"/>
		<path class="st0" d="M65.46,54.83v-6.85c0-2.26-0.52-3.97-1.55-5.12c-1.02-1.15-2.73-1.73-5.1-1.73c-1.06,0-2.05,0.14-2.95,0.43
			c-0.92,0.29-1.74,0.67-2.51,1.11l0.16,2.6c0.64-0.52,1.38-0.93,2.23-1.23c0.85-0.3,1.71-0.45,2.58-0.45c1.55,0,2.61,0.37,3.2,1.09
			c0.59,0.72,0.89,1.78,0.89,3.23c-0.3-0.03-0.59-0.04-0.85-0.05c-0.26-0.01-0.52-0.01-0.76-0.01h-1.61c-0.79,0-1.64,0.09-2.53,0.29
			c-0.92,0.18-1.74,0.47-2.51,0.91c-0.38,0.21-0.73,0.46-1.06,0.73c-0.33,0.28-0.6,0.59-0.85,0.93c-0.24,0.35-0.42,0.73-0.56,1.17
			c-0.13,0.43-0.2,0.92-0.2,1.43c0,0.92,0.14,1.69,0.45,2.33c0.3,0.66,0.72,1.19,1.26,1.61c0.54,0.42,1.18,0.73,1.93,0.93
			c0.75,0.2,1.56,0.3,2.45,0.3c0.68,0,1.31-0.09,1.86-0.25c0.56-0.17,1.05-0.38,1.48-0.64c0.43-0.25,0.79-0.52,1.09-0.83
			c0.3-0.3,0.54-0.58,0.71-0.83h0.07v2.14h2.86c-0.04-0.25-0.08-0.6-0.09-1.09C65.47,56.51,65.46,55.79,65.46,54.83z M62.4,51.64
			c0,1.22-0.39,2.26-1.17,3.11c-0.77,0.83-1.91,1.26-3.42,1.26c-0.35,0-0.71-0.05-1.08-0.18c-0.37-0.12-0.7-0.3-1-0.52
			c-0.3-0.22-0.55-0.51-0.73-0.84s-0.29-0.72-0.29-1.15c0-0.73,0.22-1.31,0.67-1.74c0.45-0.43,0.97-0.75,1.59-0.94
			c0.64-0.24,1.27-0.37,1.9-0.41c0.33-0.03,0.62-0.04,0.89-0.05c0.26-0.01,0.5-0.03,0.72-0.03c0.31,0,0.64,0.01,0.97,0.03
			c0.33,0.03,0.66,0.03,0.96,0.03L62.4,51.64L62.4,51.64z"/>
		<path class="st0" d="M77.61,56.01c-0.67,0-1.29-0.25-1.81-0.75c-0.51-0.49-0.76-1.22-0.76-2.2v-9.08h4.39v-2.45h-4.39V36.7
			l-3.04,0.98v3.84h-3.74v2.45h3.74v9.68c0,1.65,0.46,2.89,1.36,3.66c0.89,0.77,2.14,1.15,3.73,1.15c0.51,0,0.98-0.05,1.42-0.16
			c0.45-0.1,0.83-0.2,1.18-0.31v-2.6c-0.24,0.14-0.52,0.29-0.85,0.41C78.5,55.94,78.08,56.01,77.61,56.01z"/>
		<path class="st0" d="M96.72,43.57c-0.73-0.77-1.63-1.36-2.66-1.8c-1.04-0.43-2.19-0.66-3.44-0.66c-1.27,0-2.43,0.22-3.46,0.66
			c-1.05,0.43-1.93,1.04-2.66,1.8c-0.73,0.77-1.3,1.68-1.72,2.74c-0.41,1.06-0.6,2.23-0.6,3.49c0,1.19,0.21,2.31,0.62,3.36
			c0.41,1.05,1,1.97,1.74,2.75c0.75,0.79,1.64,1.42,2.68,1.86c1.04,0.46,2.18,0.68,3.42,0.68c1.23,0,2.37-0.24,3.4-0.68
			c1.02-0.46,1.91-1.09,2.66-1.86c0.73-0.79,1.31-1.71,1.73-2.75c0.41-1.05,0.62-2.18,0.62-3.36c0-1.26-0.2-2.41-0.6-3.49
			C98.01,45.27,97.44,44.35,96.72,43.57z M95.46,52.01c-0.2,0.73-0.52,1.4-0.93,1.99c-0.42,0.59-0.94,1.08-1.6,1.44
			s-1.42,0.56-2.31,0.56s-1.68-0.18-2.33-0.56c-0.66-0.37-1.19-0.85-1.61-1.44s-0.73-1.26-0.94-1.99c-0.2-0.73-0.31-1.48-0.31-2.2
			c0-0.79,0.12-1.56,0.35-2.31c0.24-0.73,0.58-1.4,1.02-1.98c0.45-0.58,0.98-1.05,1.63-1.4c0.64-0.35,1.38-0.52,2.19-0.52
			c0.8,0,1.52,0.17,2.16,0.52c0.64,0.35,1.18,0.81,1.63,1.4c0.45,0.58,0.79,1.25,1.01,1.98c0.24,0.73,0.35,1.51,0.35,2.31
			C95.76,50.54,95.65,51.27,95.46,52.01z"/>
		<path class="st0" d="M110.36,41.13c-0.89,0-1.74,0.28-2.52,0.83c-0.8,0.56-1.4,1.27-1.81,2.12h-0.07v-2.56h-2.86v16.55h3.04v-7.53
			c0-2.09,0.41-3.73,1.23-4.93c0.83-1.22,1.91-1.82,3.28-1.82c0.26,0,0.54,0.03,0.83,0.07c0.29,0.04,0.58,0.12,0.87,0.22v-2.73
			c-0.33-0.07-0.63-0.12-0.92-0.16C111.18,41.15,110.82,41.13,110.36,41.13z"/>
		<path class="st0" d="M122.73,56.01c-0.67,0-1.29-0.25-1.81-0.75c-0.51-0.49-0.76-1.22-0.76-2.2v-9.08h4.39v-2.45h-4.39V36.7
			l-3.04,0.98v3.84h-3.74v2.45h3.74v9.68c0,1.65,0.46,2.89,1.36,3.66c0.89,0.77,2.14,1.15,3.73,1.15c0.51,0,0.98-0.05,1.42-0.16
			c0.43-0.1,0.83-0.2,1.18-0.31v-2.6c-0.24,0.14-0.52,0.29-0.85,0.41C123.62,55.94,123.2,56.01,122.73,56.01z"/>
		<polygon class="st0" points="134.56,48.86 142.24,41.53 138.09,41.53 131.42,48.23 131.42,33.72 128.39,33.72 128.39,58.08 
			131.42,58.08 131.42,49.57 138.83,58.08 143.23,58.08 		"/>
	</g>
	<g>
		<g>
			<polygon class="st1" points="160.62,58.07 150.85,58.07 167.86,11.05 177.63,11.05 			"/>
		</g>
		<g>
			<polygon class="st2" points="179.19,58.07 169.42,58.07 179.69,29.57 189.46,29.57 			"/>
		</g>
	</g>
	<g>
		<g>
			<g>
				<path class="st2" d="M189.95,56.62h-0.58v-2.75h1.15c0.6,0,0.98,0.33,0.98,0.88c0,0.35-0.18,0.66-0.5,0.79l0.58,1.09h-0.66
					l-0.51-1h-0.47L189.95,56.62L189.95,56.62z M189.95,55.18h0.51c0.29,0,0.46-0.16,0.46-0.42s-0.18-0.43-0.46-0.43h-0.5
					L189.95,55.18L189.95,55.18z"/>
			</g>
		</g>
		<g>
			<g>
				<g>
					<path class="st2" d="M190.37,58.09c-1.56,0-2.83-1.27-2.83-2.83s1.27-2.83,2.83-2.83c1.56,0,2.83,1.27,2.83,2.83
						C193.19,56.82,191.91,58.09,190.37,58.09z M190.37,53c-1.25,0-2.26,1.01-2.26,2.26s1.01,2.26,2.26,2.26s2.26-1.01,2.26-2.26
						S191.61,53,190.37,53z"/>
				</g>
			</g>
		</g>
	</g>
</g>
</svg>
