<svg xmlns="http://www.w3.org/2000/svg" width="24px" height="24px" viewBox="0 0 24 24" version="1.1" class="pricing__card-feature-icon"><path d="M12,15.68 L8.29603773,17.8793505 C8.05859886,18.0203377 7.7518239,17.9421482 7.6108367,17.7047093 C7.54559567,17.5948358 7.52489757,17.4641532 7.5529927,17.3394967 L8.50011202,13.1371825 L5.26381812,10.2941418 C5.05635867,10.1118914 5.03592265,9.79596921 5.218173,9.58850976 C5.30250831,9.49250908 5.42039883,9.43244086 5.54763607,9.42063994 L9.83695027,9.02281746 L11.5407729,5.06637115 C11.6499948,4.81274703 11.9441396,4.69568589 12.1977637,4.80490777 C12.3151268,4.85544958 12.4086853,4.94900802 12.4592271,5.06637115 L14.1630497,9.02281746 L18.4523639,9.42063994 C18.7273262,9.44614196 18.9295537,9.68971641 18.9040517,9.96467869 C18.8922508,10.0919159 18.8321826,10.2098064 18.7361819,10.2941418 L15.499888,13.1371825 L16.4470073,17.3394967 C16.5077215,17.6088819 16.3385601,17.8764803 16.0691749,17.9371945 C15.9445184,17.9652896 15.8138358,17.9445915 15.7039623,17.8793505 L12,15.68 Z" stroke="none" fill="#f3b721" stroke-width="1px"></path></svg>