<svg id="SvgjsSvg1000" xmlns="http://www.w3.org/2000/svg" version="1.1" xmlns:xlink="http://www.w3.org/1999/xlink" xmlns:svgjs="http://svgjs.com/svgjs" width="121" height="31" viewBox="0 0 121 31"><title>LOGO</title><desc>Created with Avocode.</desc><defs id="SvgjsDefs1001"></defs><path id="SvgjsPath1007" d="M168.81 87.09C168.17000000000002 87.28 167.37 87.37 166.41 87.37C165.72 87.37 165.10999999999999 87.28 164.59 87.11C164.08 86.94 163.65 86.65 163.3 86.24C162.95000000000002 85.83 162.69 85.28 162.52 84.58C162.36 83.88 162.27 82.99 162.27 81.91V71.07C161.35000000000002 70.91 160.43 70.83 159.53 70.83C158.63 70.83 157.71 70.91 156.78 71.07H153.23V70.19999999999999C153.28 68.76999999999998 153.59 67.83999999999999 154.14999999999998 67.40999999999998C154.71999999999997 66.96999999999998 155.45999999999998 66.75999999999998 156.35999999999999 66.75999999999998C156.86999999999998 66.75999999999998 157.27999999999997 66.78999999999998 157.58999999999997 66.84999999999998C157.90999999999997 66.91999999999997 158.2 66.97999999999998 158.47999999999996 67.02999999999999C158.73999999999995 66.34999999999998 158.92999999999995 65.65999999999998 159.04999999999995 64.96C159.15999999999997 64.25999999999999 159.23999999999995 63.46999999999999 159.29999999999995 62.599999999999994C158.67999999999995 62.419999999999995 158.09999999999997 62.28999999999999 157.57999999999996 62.23C157.04999999999995 62.16 156.39999999999995 62.12 155.61999999999995 62.12C154.45999999999995 62.12 153.39999999999995 62.3 152.42999999999995 62.66C151.46999999999994 63.019999999999996 150.62999999999994 63.529999999999994 149.93999999999994 64.2C149.23999999999995 64.88000000000001 148.70999999999995 65.71000000000001 148.32999999999993 66.7C147.95999999999992 67.68 147.76999999999992 68.81 147.76999999999992 70.08V71.07H144.59999999999994C144.52999999999994 71.47 144.46999999999994 71.82 144.44999999999993 72.13999999999999C144.41999999999993 72.44999999999999 144.40999999999994 72.77999999999999 144.40999999999994 73.12999999999998C144.40999999999994 73.48999999999998 144.41999999999993 73.84999999999998 144.44999999999993 74.18999999999998C144.46999999999994 74.53999999999998 144.52999999999994 74.91999999999999 144.59999999999994 75.33999999999999H147.76999999999992V91.51999999999998C148.69999999999993 91.67999999999998 149.61999999999992 91.75999999999998 150.51999999999992 91.75999999999998C151.38999999999993 91.75999999999998 152.29999999999993 91.67999999999998 153.22999999999993 91.51999999999998V75.33999999999997H156.77999999999994V82.06999999999998C156.77999999999994 84.25999999999998 157.04999999999995 86.00999999999998 157.58999999999995 87.32999999999998C158.13999999999996 88.64999999999998 158.85999999999996 89.64999999999998 159.77999999999994 90.33999999999999C160.69999999999993 91.02 161.75999999999993 91.46999999999998 162.96999999999994 91.67999999999999C164.17999999999995 91.88999999999999 165.43999999999994 91.99999999999999 166.75999999999993 91.99999999999999C168.22999999999993 91.99999999999999 169.63999999999993 91.85999999999999 170.99999999999994 91.57999999999998C172.34999999999994 91.30999999999999 173.43999999999994 91.01999999999998 174.25999999999993 90.72999999999999V71.07C173.32999999999993 70.91 172.41999999999993 70.83 171.51999999999992 70.83C170.63999999999993 70.83 169.73999999999992 70.91 168.80999999999992 71.07ZM185.48 87.25C185.01 87.25 184.63 87.2 184.32 87.09C184.01 86.99000000000001 183.75 86.8 183.56 86.52000000000001C183.37 86.24000000000001 183.23 85.85000000000001 183.14000000000001 85.35000000000001C183.04000000000002 84.85000000000001 183.00000000000003 84.19000000000001 183.00000000000003 83.37V62.60000000000001C182.07000000000002 62.44000000000001 181.17000000000002 62.36000000000001 180.30000000000004 62.36000000000001C179.39000000000004 62.36000000000001 178.48000000000005 62.440000000000005 177.55000000000004 62.60000000000001V84.60000000000001C177.55000000000004 87.13000000000001 178.15000000000003 88.96000000000001 179.35000000000005 90.08000000000001C180.55000000000004 91.20000000000002 182.14000000000004 91.76000000000002 184.12000000000006 91.76000000000002C184.61000000000007 91.76000000000002 185.15000000000006 91.73000000000002 185.73000000000008 91.68000000000002C186.3100000000001 91.63000000000002 186.80000000000007 91.54000000000002 187.21000000000006 91.41000000000003C187.27000000000007 91.20000000000003 187.29000000000008 91.00000000000003 187.29000000000008 90.83000000000003V90.26000000000003C187.29000000000008 89.23000000000003 187.1500000000001 88.17000000000003 186.8700000000001 87.09000000000003C186.6400000000001 87.15000000000003 186.4000000000001 87.19000000000003 186.1500000000001 87.21000000000004C185.91000000000008 87.24000000000004 185.6800000000001 87.25000000000004 185.4800000000001 87.25000000000004ZM195.45 70.2C195.48 69.49000000000001 195.60999999999999 68.91 195.85999999999999 68.46000000000001C196.1 68.01 196.42 67.66000000000001 196.80999999999997 67.41000000000001C197.18999999999997 67.16000000000001 197.62999999999997 66.99000000000001 198.11999999999998 66.89000000000001C198.60999999999999 66.80000000000001 199.09999999999997 66.76000000000002 199.58999999999997 66.76000000000002C200.43999999999997 66.76000000000002 201.23999999999998 66.82000000000002 201.98999999999998 66.95000000000002C202.73999999999998 67.08000000000001 203.55999999999997 67.34000000000002 204.45999999999998 67.71000000000002C204.82 67.10000000000002 205.10999999999999 66.43000000000002 205.32999999999998 65.69000000000003C205.54999999999998 64.95000000000003 205.69 64.14000000000003 205.73999999999998 63.270000000000024C204.70999999999998 62.83000000000003 203.64999999999998 62.520000000000024 202.57 62.36000000000003C201.48999999999998 62.21000000000003 200.29999999999998 62.13000000000003 199.01 62.13000000000003C197.69 62.13000000000003 196.48 62.30000000000003 195.37 62.66000000000003C194.27 63.02000000000003 193.32 63.53000000000003 192.53 64.20000000000003C191.75 64.88000000000004 191.13 65.71000000000004 190.68 66.70000000000003C190.22 67.68000000000004 190 68.81000000000003 190 70.08000000000003V71.07000000000002H186.83C186.75 71.47000000000003 186.70000000000002 71.82000000000002 186.67000000000002 72.14000000000001C186.65 72.45000000000002 186.64000000000001 72.78000000000002 186.64000000000001 73.13000000000001C186.64000000000001 73.49000000000001 186.65 73.85000000000001 186.67000000000002 74.19000000000001C186.70000000000002 74.54 186.75000000000003 74.92000000000002 186.83 75.34000000000002H190V91.52000000000001C190.93 91.68 191.84 91.76 192.75 91.76C193.62 91.76 194.52 91.68 195.45 91.52000000000001V75.34H202.32999999999998V91.52000000000001C203.26999999999998 91.68 204.14999999999998 91.76 204.99999999999997 91.76C205.87999999999997 91.76 206.77999999999997 91.68 207.70999999999998 91.52000000000001V71.07000000000001H195.45ZM219.35 87.25C218.88 87.25 218.5 87.2 218.19 87.09C217.88 86.99000000000001 217.63 86.8 217.44 86.52000000000001C217.24 86.24000000000001 217.1 85.85000000000001 217.01 85.35000000000001C216.92 84.85000000000001 216.87 84.19000000000001 216.87 83.37V62.60000000000001C215.95000000000002 62.44000000000001 215.04 62.36000000000001 214.17000000000002 62.36000000000001C213.27 62.36000000000001 212.35000000000002 62.440000000000005 211.42000000000002 62.60000000000001V84.60000000000001C211.42000000000002 87.13000000000001 212.02 88.96000000000001 213.22000000000003 90.08000000000001C214.42000000000002 91.20000000000002 216.01000000000002 91.76000000000002 218.00000000000003 91.76000000000002C218.49000000000004 91.76000000000002 219.02000000000004 91.73000000000002 219.60000000000002 91.68000000000002C220.18000000000004 91.63000000000002 220.68000000000004 91.54000000000002 221.09000000000003 91.41000000000003C221.14000000000004 91.20000000000003 221.17000000000004 91.00000000000003 221.17000000000004 90.83000000000003V90.26000000000003C221.17000000000004 89.23000000000003 221.03000000000006 88.17000000000003 220.74000000000004 87.09000000000003C220.51000000000005 87.15000000000003 220.27000000000004 87.19000000000003 220.03000000000003 87.21000000000004C219.78000000000003 87.24000000000004 219.56000000000003 87.25000000000004 219.35000000000002 87.25000000000004ZM230.33 87.25C229.87 87.25 229.48000000000002 87.2 229.17000000000002 87.09C228.86 86.99000000000001 228.61 86.8 228.42000000000002 86.52000000000001C228.22000000000003 86.24000000000001 228.08 85.85000000000001 227.99 85.35000000000001C227.9 84.85000000000001 227.86 84.19000000000001 227.86 83.37V62.60000000000001C226.93 62.44000000000001 226.03 62.36000000000001 225.15 62.36000000000001C224.25 62.36000000000001 223.33 62.440000000000005 222.4 62.60000000000001V84.60000000000001C222.4 87.13000000000001 223 88.96000000000001 224.20000000000002 90.08000000000001C225.4 91.20000000000002 226.99 91.76000000000002 228.98000000000002 91.76000000000002C229.47000000000003 91.76000000000002 230.00000000000003 91.73000000000002 230.58 91.68000000000002C231.16000000000003 91.63000000000002 231.66000000000003 91.54000000000002 232.07000000000002 91.41000000000003C232.12000000000003 91.20000000000003 232.15000000000003 91.00000000000003 232.15000000000003 90.83000000000003V90.26000000000003C232.15000000000003 89.23000000000003 232.01000000000005 88.17000000000003 231.72000000000003 87.09000000000003C231.49000000000004 87.15000000000003 231.25000000000003 87.19000000000003 231.01000000000002 87.21000000000004C230.76000000000002 87.24000000000004 230.54000000000002 87.25000000000004 230.33 87.25000000000004ZM232.03 71.07C231.88 71.75999999999999 231.8 72.44999999999999 231.8 73.16999999999999C231.8 73.50999999999999 231.82000000000002 73.86999999999999 231.86 74.24999999999999C231.9 74.63999999999999 231.96 74.99999999999999 232.03 75.33999999999999H234.63V91.51999999999998C235.54999999999998 91.67999999999998 236.44 91.75999999999998 237.29 91.75999999999998C238.17 91.75999999999998 239.07 91.67999999999998 240 91.51999999999998V71.06999999999998ZM236.64 67.82C237.07 67.82 237.54 67.80999999999999 238.04999999999998 67.78999999999999C238.54999999999998 67.75999999999999 239.01999999999998 67.71 239.45999999999998 67.63C239.52999999999997 67.17999999999999 239.58999999999997 66.72999999999999 239.60999999999999 66.28C239.64 65.83 239.64999999999998 65.4 239.64999999999998 64.97C239.64999999999998 64.53 239.64 64.09 239.60999999999999 63.65C239.58999999999997 63.21 239.52999999999997 62.769999999999996 239.45999999999998 62.32C239.01999999999998 62.25 238.54 62.19 238.02999999999997 62.15C237.50999999999996 62.11 237.03999999999996 62.089999999999996 236.59999999999997 62.089999999999996C236.17999999999998 62.089999999999996 235.72999999999996 62.11 235.21999999999997 62.15C234.71999999999997 62.19 234.24999999999997 62.25 233.80999999999997 62.32C233.65999999999997 63.25 233.57999999999998 64.13 233.57999999999998 64.97C233.57999999999998 65.85 233.66 66.73 233.80999999999997 67.63C234.24999999999997 67.71 234.72999999999996 67.75999999999999 235.23999999999998 67.78999999999999C235.76 67.80999999999999 236.21999999999997 67.82 236.64 67.82ZM131.07 90.32C132.04 91.8 134 92.19999999999999 135.45 91.19999999999999C136.89999999999998 90.21 137.29 88.19999999999999 136.32 86.71999999999998C135.35 85.23999999999998 133.39 84.83999999999999 131.94 85.83999999999999C130.49 86.82999999999998 130.1 88.83999999999999 131.07 90.32ZM131.91 74.19L126.67 77.78C125.23 78.77 124.84 80.79 125.8 82.27C126.77 83.74 128.74 84.14 130.18 83.14999999999999L135.43 79.55999999999999C136.87 78.57 137.26000000000002 76.54999999999998 136.29000000000002 75.07999999999998C135.33 73.59999999999998 133.36 73.19999999999999 131.91000000000003 74.18999999999998ZM131.89 62.54L121.39999999999999 69.73C119.94999999999999 70.72 119.55999999999999 72.74000000000001 120.52999999999999 74.22C121.49999999999999 75.69 123.46999999999998 76.09 124.90999999999998 75.1L135.39999999999998 67.91C136.84999999999997 66.92 137.23 64.91 136.26999999999998 63.42999999999999C135.29999999999998 61.949999999999996 133.32999999999998 61.54999999999999 131.89 62.53999999999999Z " fill="#1574fb" fill-opacity="1" transform="matrix(1,0,0,1,-119,-61)"></path></svg>