<?xml version="1.0" encoding="utf-8"?>
<!-- Generator: Adobe Illustrator 23.0.1, SVG Export Plug-In . SVG Version: 6.00 Build 0)  -->
<svg version="1.1" id="Layer_1" xmlns="http://www.w3.org/2000/svg" xmlns:xlink="http://www.w3.org/1999/xlink" x="0px" y="0px"
	 viewBox="0 0 230.6 92.5" style="enable-background:new 0 0 230.6 92.5;" xml:space="preserve">
<style type="text/css">
	.st0{fill:#42526E;}
	.st1{fill:#1468CF;}
</style>
<g>
	<g>
		<path class="st0" d="M29.9,26.2h-0.8c-0.6,0-1.2-0.1-1.7-0.2s-0.9-0.4-1.2-0.6c-0.3-0.3-0.5-0.6-0.7-0.9s-0.2-0.7-0.2-1
			c0-0.7,0.2-1.2,0.7-1.5s1.1-0.4,1.8-0.4c0.3,0,0.6,0,0.9,0.1c0.3,0,0.5,0.1,0.6,0.1l0.4-2.2c-0.4-0.1-0.8-0.1-1.1-0.1s-0.6,0-1,0
			c-0.8,0-1.5,0.1-2,0.3c-0.6,0.2-1,0.5-1.4,0.8c-0.4,0.3-0.7,0.7-0.8,1.1s-0.3,0.9-0.3,1.3c0,0.4,0.1,0.8,0.2,1.2s0.3,0.7,0.4,1
			c0.2,0.3,0.4,0.5,0.5,0.7c0.2,0.2,0.4,0.3,0.5,0.4h-2.9v2.2h8C29.9,28.3,29.9,26.2,29.9,26.2z"/>
		<path class="st0" d="M8.3,36.4C8.6,37,9,37.5,9.6,38c0.5,0.5,1.2,0.9,2.1,1.3s1.9,0.6,3.2,0.8c1.3,0.2,2.8,0.3,4.5,0.3h23.9V8.8
			h-3.9v27.6H21.8c-2.3,0-4.2-0.1-5.5-0.3s-2.4-0.5-3.1-0.9c-0.7-0.4-1.2-0.9-1.4-1.5c-0.2-0.6-0.3-1.4-0.3-2.2c0-0.5,0-1,0.1-1.5
			s0.1-1,0.2-1.5L8,28c-0.1,0.3-0.1,0.7-0.2,1.1c-0.1,0.4-0.1,0.8-0.1,1.2c0,0.4-0.1,0.8-0.1,1.1c0,0.4,0,0.7,0,1
			c0,0.7,0.1,1.4,0.2,2.1S8,35.8,8.3,36.4z"/>
		<path class="st0" d="M70.5,42.4c0.4-1.5,0.6-3.4,0.6-5.6V23.4h-3.9v14.6c0,1.1-0.1,2.1-0.2,3s-0.5,1.6-0.9,2.3
			c-0.5,0.7-1.2,1.2-2.1,1.6c-0.9,0.4-2.2,0.7-3.7,0.9l0.4,3.8c1.8-0.2,3.4-0.6,4.7-1.2c1.3-0.5,2.4-1.3,3.3-2.2
			C69.4,45.1,70.1,43.9,70.5,42.4z"/>
		<path class="st0" d="M79.9,37.6c0.8,0.8,1.7,1.5,3,2c1.2,0.5,2.7,0.8,4.5,0.8H91c-0.5,1.6-1.6,2.9-3.4,3.8c-1.8,1-4.2,1.5-7.1,1.8
			l0.4,3.8c1.8-0.2,3.4-0.5,4.9-0.9c1.6-0.4,2.9-1,4.1-1.7c1.2-0.7,2.2-1.6,3.1-2.8c0.8-1.1,1.5-2.5,1.8-4.1h5h0h6.9h-7h11.1v-17
			h-3.9v13h-7.2h7h-6.9h0h-4.7v-3.8c0-1.4-0.1-2.6-0.4-3.6s-0.6-1.9-1-2.7S93,25,92.4,24.5c-0.5-0.5-1.1-0.9-1.7-1.1
			s-1.2-0.5-1.8-0.6c-0.6-0.1-1.2-0.2-1.8-0.2c-1.4,0-2.7,0.2-3.8,0.7c-1.1,0.5-2.1,1.1-2.9,1.9c-0.8,0.8-1.4,1.8-1.9,2.9
			c-0.4,1.1-0.7,2.3-0.7,3.6c0,1,0.2,2,0.5,3C78.6,35.9,79.2,36.8,79.9,37.6z M82,29.4c0.2-0.6,0.6-1.2,1-1.6
			c0.4-0.5,0.9-0.8,1.5-1.1s1.2-0.4,1.9-0.4c0.6,0,1.2,0.1,1.8,0.3c0.6,0.2,1.1,0.6,1.6,1.1c0.5,0.5,0.8,1.3,1.1,2.3
			s0.4,2.3,0.4,3.8v2.5h-3.9c-1,0-1.9-0.1-2.7-0.4c-0.7-0.3-1.3-0.6-1.8-1.1c-0.5-0.4-0.8-1-1-1.5s-0.3-1.2-0.3-1.9
			C81.6,30.8,81.8,30.1,82,29.4z"/>
		<path class="st0" d="M105.4,17.8c0.3,0,0.6-0.1,0.9-0.2c0.3-0.1,0.5-0.3,0.7-0.5c0.2-0.2,0.4-0.5,0.5-0.7c0.1-0.3,0.2-0.6,0.2-0.9
			s-0.1-0.6-0.2-0.9c-0.1-0.3-0.3-0.5-0.5-0.8c-0.2-0.2-0.5-0.4-0.7-0.5c-0.3-0.1-0.6-0.2-0.9-0.2s-0.6,0.1-0.9,0.2
			c-0.3,0.1-0.5,0.3-0.7,0.5c-0.2,0.2-0.4,0.5-0.5,0.8c-0.1,0.3-0.2,0.6-0.2,0.9c0,0.7,0.2,1.2,0.7,1.7
			C104.2,17.6,104.7,17.8,105.4,17.8z"/>
		<path class="st0" d="M113.7,14.6c-0.1-0.3-0.3-0.5-0.5-0.8c-0.2-0.2-0.5-0.4-0.7-0.5c-0.3-0.1-0.6-0.2-0.9-0.2s-0.6,0.1-0.9,0.2
			c-0.3,0.1-0.5,0.3-0.7,0.5c-0.2,0.2-0.4,0.5-0.5,0.8c-0.1,0.3-0.2,0.6-0.2,0.9c0,0.7,0.2,1.2,0.7,1.7c0.4,0.5,1,0.7,1.6,0.7
			c0.3,0,0.6-0.1,0.9-0.2c0.3-0.1,0.5-0.3,0.7-0.5c0.2-0.2,0.4-0.5,0.5-0.7c0.1-0.3,0.2-0.6,0.2-0.9
			C113.9,15.2,113.8,14.8,113.7,14.6z"/>
		<path class="st0" d="M146.8,17.8c0.3,0,0.6-0.1,0.9-0.2c0.3-0.1,0.5-0.3,0.7-0.5c0.2-0.2,0.4-0.5,0.5-0.7c0.1-0.3,0.2-0.6,0.2-0.9
			s-0.1-0.6-0.2-0.9c-0.1-0.3-0.3-0.5-0.5-0.8c-0.2-0.2-0.5-0.4-0.7-0.5c-0.3-0.1-0.6-0.2-0.9-0.2c-0.3,0-0.6,0.1-0.9,0.2
			c-0.3,0.1-0.5,0.3-0.7,0.5c-0.2,0.2-0.4,0.5-0.5,0.8c-0.1,0.3-0.2,0.6-0.2,0.9c0,0.7,0.2,1.2,0.7,1.7
			C145.6,17.6,146.1,17.8,146.8,17.8z"/>
		<path class="st0" d="M154.9,31.4c0-1.4-0.2-2.6-0.5-3.7c-0.4-1.1-0.9-2-1.6-2.8s-1.5-1.3-2.5-1.7c-1-0.4-2.1-0.6-3.4-0.6
			c-1.3,0-2.5,0.2-3.6,0.7c-1.1,0.5-2,1.1-2.8,1.9c-0.8,0.8-1.4,1.8-1.9,2.9s-0.7,2.3-0.7,3.5c0,0.5,0,1,0.1,1.5s0.2,0.9,0.3,1.3
			c0.1,0.4,0.3,0.8,0.4,1.1s0.3,0.6,0.5,0.8v0.1h-7l0,0h-6.9H124c-0.4,0-0.8-0.1-1.1-0.2c-0.3-0.1-0.5-0.3-0.7-0.6
			c-0.2-0.3-0.3-0.7-0.3-1.2c-0.1-0.5-0.1-1.2-0.1-2V8.8h-3.9V34c0,0.9,0.1,1.8,0.3,2.5s0.6,1.5,1,2s1,1,1.7,1.3
			c0.7,0.3,1.5,0.5,2.5,0.5h2.1h6.9l0,0h22.5L154.9,31.4L154.9,31.4z M150.9,36.4h-3.6c-0.9,0-1.7-0.1-2.4-0.4
			c-0.7-0.2-1.3-0.6-1.8-1c-0.5-0.4-0.9-1-1.1-1.6c-0.3-0.6-0.4-1.3-0.4-2c0-0.8,0.1-1.4,0.4-2s0.6-1.1,1-1.6s0.9-0.8,1.5-1
			s1.2-0.4,1.9-0.4c0.6,0,1.2,0.1,1.7,0.3s1.1,0.5,1.5,1c0.4,0.5,0.8,1.1,1,1.8s0.4,1.7,0.4,2.8L150.9,36.4L150.9,36.4z"/>
		<polygon class="st0" points="7.6,86.2 12.1,86.2 12.1,71.9 23.7,71.9 23.7,68 12.1,68 12.1,58.8 24.2,58.8 24.2,54.9 7.6,54.9 		
			"/>
		<path class="st0" d="M47.7,81.7v-9.5c0-3.1-0.7-5.5-2.1-7.1c-1.4-1.6-3.8-2.4-7-2.4c-1.5,0-2.8,0.2-4.1,0.6
			c-1.3,0.4-2.4,0.9-3.5,1.5l0.2,3.6c0.9-0.7,1.9-1.3,3.1-1.7c1.2-0.4,2.4-0.6,3.6-0.6c2.1,0,3.6,0.5,4.4,1.5c0.8,1,1.2,2.5,1.2,4.4
			c-0.4,0-0.8-0.1-1.2-0.1c-0.4,0-0.7,0-1,0H39c-1.1,0-2.3,0.1-3.5,0.4c-1.3,0.2-2.4,0.7-3.5,1.2c-0.5,0.3-1,0.6-1.5,1
			c-0.5,0.4-0.8,0.8-1.2,1.3s-0.6,1-0.8,1.6c-0.2,0.6-0.3,1.3-0.3,2c0,1.3,0.2,2.3,0.6,3.2s1,1.6,1.7,2.2c0.8,0.6,1.6,1,2.7,1.3
			s2.2,0.4,3.4,0.4c1,0,1.8-0.1,2.6-0.3c0.8-0.2,1.5-0.5,2-0.9s1.1-0.7,1.5-1.1c0.4-0.4,0.7-0.8,1-1.1h0.1v3h3.9
			c-0.1-0.3-0.1-0.8-0.1-1.5C47.7,84,47.7,83,47.7,81.7z M43.5,77.3c0,1.7-0.5,3.1-1.6,4.3c-1.1,1.2-2.6,1.7-4.7,1.7
			c-0.5,0-1-0.1-1.5-0.2c-0.5-0.2-1-0.4-1.4-0.7c-0.4-0.3-0.8-0.7-1-1.2c-0.3-0.5-0.4-1-0.4-1.6c0-1,0.3-1.8,0.9-2.4
			c0.6-0.6,1.3-1,2.2-1.3c0.9-0.3,1.8-0.5,2.6-0.6c0.5,0,0.9-0.1,1.2-0.1c0.4,0,0.7,0,1,0c0.4,0,0.9,0,1.3,0c0.5,0,0.9,0,1.3,0
			L43.5,77.3L43.5,77.3z"/>
		<path class="st0" d="M64.5,83.3c-0.9,0-1.8-0.3-2.5-1c-0.7-0.7-1-1.7-1-3V66.7H67v-3.4h-6.1v-6.7L56.7,58v5.3h-5.2v3.4h5.2v13.4
			c0,2.3,0.6,4,1.9,5.1c1.2,1.1,3,1.6,5.2,1.6c0.7,0,1.4-0.1,2-0.2s1.2-0.3,1.6-0.4v-3.6c-0.3,0.2-0.7,0.4-1.2,0.6
			S65.1,83.3,64.5,83.3z"/>
		<path class="st0" d="M90.8,66.1c-1-1.1-2.2-1.9-3.7-2.5c-1.4-0.6-3-0.9-4.8-0.9c-1.8,0-3.3,0.3-4.8,0.9s-2.7,1.4-3.7,2.5
			c-1,1.1-1.8,2.3-2.4,3.8c-0.6,1.5-0.8,3.1-0.8,4.8c0,1.6,0.3,3.2,0.8,4.6c0.6,1.4,1.4,2.7,2.4,3.8s2.3,1.9,3.7,2.6
			c1.4,0.6,3,0.9,4.7,0.9c1.7,0,3.3-0.3,4.7-0.9c1.4-0.6,2.6-1.5,3.7-2.6c1-1.1,1.8-2.4,2.4-3.8s0.8-3,0.8-4.6
			c0-1.7-0.3-3.3-0.8-4.8C92.6,68.5,91.8,67.2,90.8,66.1z M89.1,77.8c-0.3,1-0.7,1.9-1.3,2.8c-0.6,0.8-1.3,1.5-2.2,2
			c-0.9,0.5-2,0.8-3.2,0.8c-1.2,0-2.3-0.3-3.2-0.8c-0.9-0.5-1.7-1.2-2.2-2c-0.6-0.8-1-1.7-1.3-2.8c-0.3-1-0.4-2-0.4-3
			c0-1.1,0.2-2.2,0.5-3.2c0.3-1,0.8-1.9,1.4-2.7c0.6-0.8,1.4-1.4,2.2-1.9s1.9-0.7,3-0.7c1.1,0,2.1,0.2,3,0.7
			c0.9,0.5,1.6,1.1,2.2,1.9c0.6,0.8,1.1,1.7,1.4,2.7s0.5,2.1,0.5,3.2C89.5,75.8,89.4,76.8,89.1,77.8z"/>
		<path class="st0" d="M109.7,62.8c-1.2,0-2.4,0.4-3.5,1.1c-1.1,0.8-1.9,1.7-2.5,2.9h-0.1v-3.5h-3.9v22.9h4.2V75.8
			c0-2.9,0.6-5.2,1.7-6.8c1.1-1.7,2.7-2.5,4.5-2.5c0.4,0,0.8,0,1.2,0.1s0.8,0.2,1.2,0.3v-3.8c-0.4-0.1-0.9-0.2-1.3-0.2
			C110.8,62.8,110.3,62.8,109.7,62.8z"/>
		<path class="st0" d="M126.8,83.3c-0.9,0-1.8-0.3-2.5-1c-0.7-0.7-1.1-1.7-1.1-3V66.7h6.1v-3.4h-6.1v-6.7L119,58v5.3h-5.2v3.4h5.2
			v13.4c0,2.3,0.6,4,1.9,5.1c1.2,1.1,3,1.6,5.2,1.6c0.7,0,1.3-0.1,2-0.2s1.1-0.3,1.6-0.4v-3.6c-0.3,0.2-0.7,0.4-1.2,0.6
			S127.4,83.3,126.8,83.3z"/>
		<polygon class="st0" points="143.1,73.4 153.7,63.3 148,63.3 138.8,72.6 138.8,52.5 134.6,52.5 134.6,86.2 138.8,86.2 138.8,74.4 
			149,86.2 155.1,86.2 		"/>
		<path class="st0" d="M42.8,40.3h5h0h6.9h-7h11.1v-17h-3.9v13h-7.2h7h-6.9h0H43"/>
		<path class="st0" d="M53.6,17.7c0.3,0,0.6-0.1,0.9-0.2c0.3-0.1,0.5-0.3,0.7-0.5c0.2-0.2,0.4-0.5,0.5-0.7c0.1-0.3,0.2-0.6,0.2-0.9
			s-0.1-0.6-0.2-0.9c-0.1-0.3-0.3-0.5-0.5-0.8c-0.2-0.2-0.5-0.4-0.7-0.5c-0.3-0.1-0.6-0.2-0.9-0.2s-0.6,0.1-0.9,0.2
			c-0.3,0.1-0.5,0.3-0.7,0.5c-0.2,0.2-0.4,0.5-0.5,0.8c-0.1,0.3-0.2,0.6-0.2,0.9c0,0.7,0.2,1.2,0.7,1.7
			C52.4,17.5,52.9,17.7,53.6,17.7z"/>
		<path class="st0" d="M61.9,14.5c-0.1-0.3-0.3-0.5-0.5-0.8c-0.2-0.2-0.5-0.4-0.7-0.5c-0.3-0.1-0.6-0.2-0.9-0.2s-0.6,0.1-0.9,0.2
			c-0.3,0.1-0.5,0.3-0.7,0.5c-0.2,0.2-0.4,0.5-0.5,0.8c-0.1,0.3-0.2,0.6-0.2,0.9c0,0.7,0.2,1.2,0.7,1.7c0.4,0.5,1,0.7,1.6,0.7
			c0.3,0,0.6-0.1,0.9-0.2c0.3-0.1,0.5-0.3,0.7-0.5c0.2-0.2,0.4-0.5,0.5-0.7c0.1-0.3,0.2-0.6,0.2-0.9C62.1,15,62,14.7,61.9,14.5z"/>
	</g>
	<g>
		<g>
			<polygon class="st1" points="179.1,86.2 165.6,86.2 189.1,21.2 202.6,21.2 			"/>
		</g>
		<g>
			<polygon class="st1" points="204.7,86.2 191.2,86.2 205.4,46.8 218.9,46.8 			"/>
		</g>
	</g>
	<g>
		<g>
			<g>
				<path class="st1" d="M219.6,84.2h-0.8v-3.8h1.6c0.8,0,1.4,0.5,1.4,1.2c0,0.5-0.2,0.9-0.7,1.1l0.8,1.5h-0.9l-0.7-1.4h-0.6
					L219.6,84.2L219.6,84.2z M219.6,82.2h0.7c0.4,0,0.6-0.2,0.6-0.6c0-0.4-0.2-0.6-0.6-0.6h-0.7L219.6,82.2L219.6,82.2z"/>
			</g>
		</g>
		<g>
			<g>
				<g>
					<path class="st1" d="M220.2,86.2c-2.2,0-3.9-1.8-3.9-3.9s1.8-3.9,3.9-3.9s3.9,1.8,3.9,3.9S222.3,86.2,220.2,86.2z M220.2,79.2
						c-1.7,0-3.1,1.4-3.1,3.1s1.4,3.1,3.1,3.1c1.7,0,3.1-1.4,3.1-3.1S221.9,79.2,220.2,79.2z"/>
				</g>
			</g>
		</g>
	</g>
</g>
</svg>
