<?xml version="1.0" encoding="UTF-8"?>
<svg width="71px" height="71px" viewBox="0 0 71 71" version="1.1" xmlns="http://www.w3.org/2000/svg" xmlns:xlink="http://www.w3.org/1999/xlink">
    <!-- Generator: Sketch 52.2 (67145) - http://www.bohemiancoding.com/sketch -->
    <title>Group 6</title>
    <desc>Created with Sketch.</desc>
    <g id="Page-1" stroke="none" stroke-width="1" fill="none" fill-rule="evenodd">
        <g id="3" transform="translate(-285.000000, -236.000000)" fill-rule="nonzero">
            <g id="Group-6" transform="translate(285.000000, 236.000000)">
                <circle id="Oval" fill="#F0F0F0" cx="35.5" cy="35.5" r="35.5"></circle>
                <path d="M27.21875,40.65 C29.849961,39.6157202 32.6573672,39.0563578 35.5,39 C38.340873,39.0711129 41.145537,39.629929 43.78125,40.65 C46.75,41.7 48,43.2 48,45 L48,48 L23,48 L23,45 C23,43.2 24.40625,41.85 27.21875,40.65 Z M40.1363128,33.3447039 C38.0739813,35.3093215 34.9147532,35.5526787 32.5759631,33.9270821 C30.2371729,32.3014855 29.363671,29.2551439 30.4855854,26.6368811 C31.6074998,24.0186183 34.4154967,22.5503407 37.2054036,23.1231455 C39.9953106,23.6959503 41.9978955,26.1519039 41.9977903,29.000489 C42.044001,30.6514688 41.3635082,32.239566 40.1363128,33.3447039 Z" id="path" fill="#B3B7C0"></path>
            </g>
        </g>
    </g>
</svg>