<?xml version="1.0" encoding="utf-8"?>
<!-- Generator: Adobe Illustrator 23.0.0, SVG Export Plug-In . SVG Version: 6.00 Build 0)  -->
<svg version="1.1" id="Layer_1" xmlns="http://www.w3.org/2000/svg" xmlns:xlink="http://www.w3.org/1999/xlink" x="0px" y="0px"
	 viewBox="0 0 230.62 92.51" style="enable-background:new 0 0 230.62 92.51;" xml:space="preserve">
<style type="text/css">
	.st0{fill:#898EA7;}
	.st1{fill:#36A9E1;}
	.st2{fill:#1D71B8;}
</style>
<g>
	<g>
		<path class="st0" d="M29.93,26.15h-0.76c-0.64,0-1.19-0.08-1.66-0.25c-0.47-0.17-0.86-0.38-1.17-0.65
			c-0.31-0.26-0.54-0.56-0.7-0.89s-0.23-0.66-0.23-0.98c0-0.69,0.24-1.18,0.71-1.47s1.08-0.44,1.82-0.44c0.33,0,0.64,0.02,0.9,0.06
			c0.27,0.04,0.48,0.07,0.62,0.1l0.35-2.22c-0.39-0.07-0.75-0.12-1.09-0.13s-0.65-0.02-0.96-0.02c-0.78,0-1.46,0.1-2.02,0.3
			c-0.57,0.2-1.04,0.46-1.41,0.79c-0.38,0.33-0.66,0.71-0.84,1.14c-0.18,0.43-0.27,0.88-0.27,1.33c0,0.44,0.06,0.84,0.17,1.21
			s0.26,0.69,0.44,0.98c0.17,0.29,0.36,0.52,0.55,0.71c0.2,0.19,0.36,0.34,0.51,0.44h-2.94v2.18h7.98V26.15z"/>
		<path class="st0" d="M8.31,36.37c0.29,0.59,0.7,1.13,1.24,1.62c0.54,0.49,1.24,0.91,2.11,1.26c0.87,0.35,1.94,0.62,3.2,0.81
			c1.26,0.19,2.76,0.29,4.5,0.29h23.93V8.77h-3.92v27.62H21.8c-2.32,0-4.17-0.09-5.55-0.27c-1.38-0.18-2.43-0.47-3.14-0.87
			c-0.72-0.4-1.19-0.91-1.4-1.53c-0.22-0.62-0.33-1.37-0.33-2.25c0-0.51,0.04-1.03,0.11-1.54c0.07-0.51,0.14-1.03,0.22-1.54L8,28.04
			c-0.06,0.32-0.11,0.68-0.16,1.07c-0.05,0.39-0.1,0.78-0.14,1.16c-0.04,0.39-0.08,0.77-0.1,1.13c-0.02,0.37-0.03,0.69-0.03,0.97
			c0,0.73,0.05,1.44,0.15,2.11S8.01,35.78,8.31,36.37z"/>
		<path class="st0" d="M56.6,42.4c0.42-1.5,0.63-3.37,0.63-5.59V23.36h-3.92v14.57c0,1.11-0.07,2.11-0.22,2.99
			c-0.15,0.88-0.46,1.64-0.94,2.3c-0.48,0.65-1.18,1.19-2.1,1.6c-0.92,0.42-2.16,0.73-3.71,0.93l0.39,3.78
			c1.8-0.25,3.36-0.64,4.68-1.16c1.32-0.53,2.41-1.28,3.26-2.25C55.55,45.14,56.18,43.9,56.6,42.4z"/>
		<path class="st0" d="M66.05,37.59c0.75,0.81,1.74,1.48,2.97,1.99c1.22,0.51,2.73,0.77,4.52,0.77h3.57
			c-0.46,1.6-1.59,2.87-3.38,3.84c-1.79,0.96-4.17,1.54-7.12,1.75l0.41,3.8c1.75-0.18,3.4-0.47,4.95-0.87
			c1.55-0.4,2.92-0.97,4.14-1.69c1.21-0.73,2.24-1.64,3.09-2.76c0.85-1.11,1.46-2.47,1.84-4.07h4.96H86h6.88h6.9h11.07V23.36h-3.92
			v13.03h-7.16h-6.9H86h-0.02H81.3v-3.76c0-1.36-0.12-2.56-0.36-3.59c-0.24-1.03-0.56-1.92-0.97-2.66
			c-0.41-0.74-0.88-1.35-1.42-1.84c-0.54-0.48-1.11-0.87-1.71-1.15S75.63,22.91,75,22.8c-0.62-0.11-1.22-0.16-1.79-0.16
			c-1.42,0-2.7,0.23-3.85,0.7c-1.14,0.47-2.12,1.12-2.93,1.94c-0.81,0.83-1.44,1.8-1.87,2.91c-0.44,1.11-0.65,2.31-0.65,3.58
			c0,1.01,0.16,2.03,0.5,3.05C64.75,35.86,65.29,36.77,66.05,37.59z M68.11,29.41c0.25-0.64,0.58-1.18,1.01-1.64
			c0.43-0.45,0.93-0.81,1.51-1.06c0.58-0.25,1.2-0.37,1.87-0.37c0.59,0,1.19,0.1,1.77,0.3c0.59,0.2,1.11,0.57,1.57,1.12
			c0.46,0.55,0.83,1.32,1.11,2.31c0.28,0.99,0.42,2.27,0.42,3.84v2.48h-3.87c-1.04,0-1.93-0.13-2.65-0.4
			c-0.72-0.26-1.32-0.62-1.78-1.06c-0.47-0.44-0.8-0.96-1.01-1.55s-0.31-1.22-0.31-1.88C67.74,30.75,67.87,30.05,68.11,29.41z"/>
		<path class="st0" d="M105.36,17.8c0.32,0,0.62-0.06,0.9-0.19c0.28-0.13,0.53-0.29,0.74-0.49c0.21-0.21,0.38-0.45,0.5-0.74
			c0.12-0.28,0.18-0.59,0.18-0.91c0-0.32-0.06-0.63-0.18-0.91c-0.13-0.29-0.29-0.53-0.5-0.75c-0.21-0.21-0.46-0.38-0.74-0.51
			c-0.28-0.12-0.58-0.19-0.9-0.19c-0.32,0-0.62,0.06-0.9,0.19c-0.28,0.12-0.53,0.29-0.73,0.51c-0.2,0.21-0.37,0.46-0.49,0.75
			c-0.12,0.29-0.19,0.59-0.19,0.91c0,0.66,0.22,1.21,0.66,1.66C104.16,17.57,104.71,17.8,105.36,17.8z"/>
		<path class="st0" d="M113.71,14.56c-0.12-0.29-0.29-0.53-0.5-0.75c-0.21-0.21-0.46-0.38-0.74-0.51c-0.28-0.12-0.58-0.19-0.9-0.19
			c-0.32,0-0.62,0.06-0.9,0.19c-0.28,0.12-0.53,0.29-0.73,0.51c-0.2,0.21-0.37,0.46-0.49,0.75c-0.12,0.29-0.19,0.59-0.19,0.91
			c0,0.66,0.22,1.21,0.67,1.66c0.44,0.45,0.99,0.67,1.64,0.67c0.32,0,0.62-0.06,0.9-0.19c0.28-0.13,0.53-0.29,0.74-0.49
			c0.21-0.21,0.38-0.45,0.5-0.74c0.12-0.28,0.18-0.59,0.18-0.91C113.89,15.15,113.83,14.84,113.71,14.56z"/>
		<path class="st0" d="M146.78,17.8c0.32,0,0.62-0.06,0.9-0.19c0.28-0.13,0.53-0.29,0.74-0.49c0.21-0.21,0.38-0.45,0.5-0.74
			c0.12-0.28,0.19-0.59,0.19-0.91c0-0.32-0.06-0.63-0.19-0.91c-0.12-0.29-0.29-0.53-0.5-0.75c-0.21-0.21-0.46-0.38-0.74-0.51
			c-0.28-0.12-0.58-0.19-0.9-0.19c-0.32,0-0.62,0.06-0.9,0.19c-0.28,0.12-0.53,0.29-0.73,0.51c-0.2,0.21-0.37,0.46-0.49,0.75
			c-0.12,0.29-0.18,0.59-0.18,0.91c0,0.66,0.22,1.21,0.66,1.66C145.58,17.57,146.13,17.8,146.78,17.8z"/>
		<path class="st0" d="M154.86,31.36c0-1.38-0.18-2.62-0.54-3.71c-0.36-1.1-0.89-2.03-1.58-2.78c-0.69-0.75-1.53-1.33-2.52-1.74
			c-0.99-0.4-2.11-0.6-3.38-0.6c-1.29,0-2.48,0.23-3.57,0.69c-1.09,0.46-2.03,1.1-2.82,1.91c-0.79,0.81-1.41,1.77-1.86,2.86
			c-0.45,1.09-0.68,2.27-0.68,3.53c0,0.51,0.04,1.01,0.11,1.49c0.07,0.48,0.18,0.93,0.3,1.35c0.13,0.42,0.28,0.79,0.45,1.11
			c0.17,0.32,0.34,0.59,0.53,0.79v0.13h-6.98h0h-6.89h-1.46c-0.45,0-0.82-0.06-1.1-0.19c-0.28-0.12-0.51-0.34-0.67-0.64
			c-0.17-0.3-0.28-0.71-0.35-1.23c-0.06-0.52-0.1-1.18-0.1-1.97V8.79h-3.92v25.19c0,0.91,0.11,1.75,0.33,2.53
			c0.22,0.78,0.55,1.45,1.01,2.02s1.03,1.02,1.73,1.34c0.7,0.32,1.52,0.48,2.48,0.48h2.05h6.89h0h22.54V31.36z M150.94,36.39h-3.61
			c-0.9,0-1.7-0.12-2.42-0.36c-0.71-0.24-1.31-0.58-1.81-1.01c-0.49-0.43-0.87-0.96-1.14-1.57c-0.27-0.62-0.4-1.3-0.4-2.04
			c0-0.75,0.12-1.43,0.37-2.05s0.58-1.15,1.01-1.59c0.43-0.44,0.93-0.78,1.51-1.03c0.58-0.25,1.2-0.37,1.87-0.37
			c0.59,0,1.17,0.1,1.73,0.29c0.56,0.19,1.05,0.51,1.48,0.97c0.43,0.45,0.77,1.06,1.02,1.82c0.25,0.76,0.38,1.71,0.38,2.83V36.39z"
			/>
		<polygon class="st0" points="7.59,86.17 12.08,86.17 12.08,71.91 23.68,71.91 23.68,67.97 12.08,67.97 12.08,58.8 24.23,58.8 
			24.23,54.86 7.59,54.86 		"/>
		<path class="st0" d="M47.69,81.68v-9.46c0-3.12-0.72-5.48-2.14-7.07c-1.42-1.59-3.77-2.39-7.05-2.39c-1.46,0-2.82,0.2-4.07,0.6
			c-1.26,0.4-2.41,0.92-3.46,1.54l0.22,3.59c0.88-0.72,1.9-1.28,3.08-1.7c1.17-0.42,2.36-0.62,3.56-0.62c2.13,0,3.61,0.5,4.42,1.51
			c0.82,0.99,1.23,2.47,1.23,4.45c-0.42-0.03-0.82-0.05-1.18-0.07c-0.36-0.01-0.72-0.02-1.05-0.02h-2.23c-1.09,0-2.26,0.13-3.5,0.39
			c-1.26,0.25-2.41,0.66-3.46,1.25c-0.53,0.29-1.02,0.63-1.47,1.01c-0.45,0.38-0.84,0.81-1.17,1.29c-0.33,0.48-0.58,1.02-0.77,1.62
			c-0.18,0.6-0.27,1.26-0.27,1.97c0,1.26,0.2,2.33,0.61,3.23c0.41,0.9,0.99,1.64,1.73,2.22c0.75,0.58,1.63,1.01,2.66,1.28
			c1.03,0.27,2.16,0.41,3.38,0.41c0.95,0,1.81-0.12,2.57-0.35c0.77-0.23,1.45-0.53,2.04-0.88c0.59-0.35,1.09-0.73,1.5-1.14
			c0.41-0.41,0.74-0.79,0.98-1.14h0.09v2.96h3.94c-0.06-0.34-0.1-0.84-0.13-1.51C47.7,83.99,47.69,82.99,47.69,81.68z M43.46,77.28
			c0,1.69-0.54,3.12-1.62,4.29c-1.07,1.15-2.64,1.73-4.73,1.73c-0.48,0-0.97-0.08-1.48-0.25c-0.5-0.17-0.96-0.41-1.38-0.72
			c-0.42-0.31-0.76-0.7-1.02-1.16c-0.26-0.46-0.39-0.99-0.39-1.59c0-1.01,0.3-1.81,0.92-2.41c0.61-0.6,1.34-1.04,2.19-1.31
			c0.88-0.32,1.75-0.51,2.63-0.57c0.45-0.03,0.86-0.06,1.23-0.08c0.36-0.02,0.69-0.03,0.99-0.03c0.44,0,0.88,0.01,1.34,0.04
			c0.45,0.03,0.9,0.04,1.33,0.04V77.28z"/>
		<path class="st0" d="M64.46,83.3c-0.93,0-1.77-0.34-2.5-1.03c-0.7-0.67-1.05-1.69-1.05-3.04V66.7h6.07v-3.39h-6.07v-6.66
			l-4.2,1.36v5.3h-5.17v3.39h5.17v13.36c0,2.29,0.63,3.98,1.88,5.06c1.24,1.07,2.96,1.6,5.15,1.6c0.7,0,1.35-0.07,1.96-0.21
			c0.61-0.14,1.15-0.28,1.63-0.43v-3.59c-0.32,0.2-0.72,0.39-1.18,0.56S65.12,83.3,64.46,83.3z"/>
		<path class="st0" d="M90.84,66.14c-1.02-1.06-2.24-1.89-3.67-2.49c-1.43-0.6-3.02-0.9-4.75-0.9c-1.75,0-3.35,0.3-4.79,0.9
			c-1.44,0.6-2.66,1.43-3.68,2.49c-1.01,1.06-1.8,2.32-2.37,3.79c-0.56,1.47-0.84,3.07-0.84,4.81c0,1.64,0.29,3.18,0.85,4.63
			c0.57,1.45,1.37,2.72,2.4,3.81c1.03,1.09,2.26,1.95,3.69,2.58c1.43,0.63,3.01,0.95,4.73,0.95c1.71,0,3.27-0.32,4.7-0.95
			c1.42-0.64,2.64-1.5,3.67-2.58c1.02-1.09,1.82-2.36,2.39-3.81c0.57-1.45,0.85-3,0.85-4.63c0-1.74-0.28-3.34-0.83-4.81
			C92.64,68.47,91.85,67.2,90.84,66.14z M89.11,77.78c-0.28,1.02-0.72,1.94-1.29,2.76c-0.58,0.82-1.31,1.48-2.21,1.99
			c-0.9,0.51-1.96,0.77-3.18,0.77c-1.24,0-2.31-0.26-3.22-0.77c-0.91-0.51-1.65-1.18-2.23-1.99c-0.58-0.82-1.02-1.74-1.3-2.76
			c-0.28-1.02-0.43-2.04-0.43-3.04c0-1.09,0.16-2.15,0.49-3.18c0.33-1.02,0.8-1.93,1.41-2.74c0.61-0.8,1.36-1.45,2.25-1.93
			c0.89-0.48,1.9-0.72,3.02-0.72c1.11,0,2.1,0.24,2.99,0.72c0.88,0.48,1.63,1.12,2.24,1.93c0.61,0.8,1.08,1.72,1.4,2.74
			c0.32,1.02,0.48,2.08,0.48,3.18C89.53,75.75,89.39,76.76,89.11,77.78z"/>
		<path class="st0" d="M109.68,62.76c-1.24,0-2.4,0.38-3.48,1.14c-1.11,0.77-1.94,1.75-2.5,2.93h-0.09v-3.53h-3.94v22.86h4.2v-10.4
			c0-2.88,0.57-5.15,1.71-6.81c1.14-1.68,2.65-2.52,4.53-2.52c0.36,0,0.75,0.03,1.15,0.09c0.4,0.06,0.8,0.16,1.19,0.31v-3.77
			c-0.45-0.09-0.87-0.16-1.26-0.22C110.82,62.79,110.31,62.76,109.68,62.76z"/>
		<path class="st0" d="M126.76,83.3c-0.93,0-1.77-0.34-2.5-1.03c-0.7-0.67-1.05-1.69-1.05-3.04V66.7h6.07v-3.39h-6.07v-6.66
			l-4.2,1.36v5.3h-5.17v3.39h5.17v13.36c0,2.29,0.63,3.98,1.88,5.06c1.24,1.07,2.96,1.6,5.15,1.6c0.7,0,1.35-0.07,1.96-0.21
			c0.61-0.14,1.15-0.28,1.63-0.43v-3.59c-0.32,0.2-0.72,0.39-1.18,0.56S127.42,83.3,126.76,83.3z"/>
		<polygon class="st0" points="143.1,73.43 153.72,63.31 147.98,63.31 138.78,72.57 138.78,52.53 134.58,52.53 134.58,86.17 
			138.78,86.17 138.78,74.41 149.01,86.17 155.08,86.17 		"/>
	</g>
	<g>
		<g>
			<polygon class="st1" points="179.09,86.15 165.6,86.15 189.09,21.21 202.58,21.21 			"/>
		</g>
		<g>
			<polygon class="st2" points="204.73,86.15 191.24,86.15 205.43,46.79 218.92,46.79 			"/>
		</g>
	</g>
	<g>
		<g>
			<g>
				<path class="st2" d="M219.58,84.16h-0.8v-3.81h1.6c0.84,0,1.35,0.46,1.35,1.22c0,0.49-0.25,0.91-0.69,1.08l0.8,1.5h-0.9
					l-0.71-1.38h-0.65V84.16z M219.58,82.17h0.7c0.4,0,0.64-0.21,0.64-0.58c0-0.36-0.25-0.59-0.64-0.59h-0.69V82.17z"/>
			</g>
		</g>
		<g>
			<g>
				<g>
					<path class="st2" d="M220.16,86.18c-2.16,0-3.91-1.75-3.91-3.91c0-2.16,1.75-3.91,3.91-3.91c2.16,0,3.91,1.75,3.91,3.91
						C224.07,84.43,222.31,86.18,220.16,86.18z M220.16,79.16c-1.72,0-3.11,1.4-3.11,3.11s1.4,3.11,3.11,3.11
						c1.72,0,3.11-1.4,3.11-3.11S221.88,79.16,220.16,79.16z"/>
				</g>
			</g>
		</g>
	</g>
</g>
</svg>
